<?xml version="1.0" encoding="utf-8"?>
<svg xmlns="http://www.w3.org/2000/svg" xmlns:xlink="http://www.w3.org/1999/xlink" width="600" height="400" viewBox="0 0 2400 1600">
<defs>
  <clipPath id="clip900">
    <rect x="0" y="0" width="2400" height="1600"/>
  </clipPath>
</defs>
<path clip-path="url(#clip900)" d="M0 1600 L2400 1600 L2400 8.88178e-14 L0 8.88178e-14  Z" fill="#ffffff" fill-rule="evenodd" fill-opacity="1"/>
<defs>
  <clipPath id="clip901">
    <rect x="480" y="0" width="1681" height="1600"/>
  </clipPath>
</defs>
<path clip-path="url(#clip900)" d="M205.121 1400.38 L2352.76 1400.38 L2352.76 47.2441 L205.121 47.2441  Z" fill="#ffffff" fill-rule="evenodd" fill-opacity="1"/>
<defs>
  <clipPath id="clip902">
    <rect x="205" y="47" width="2149" height="1354"/>
  </clipPath>
</defs>
<polyline clip-path="url(#clip902)" style="stroke:#000000; stroke-linecap:round; stroke-linejoin:round; stroke-width:2; stroke-opacity:0.1; fill:none" points="342.359,1400.38 342.359,47.2441 "/>
<polyline clip-path="url(#clip902)" style="stroke:#000000; stroke-linecap:round; stroke-linejoin:round; stroke-width:2; stroke-opacity:0.1; fill:none" points="609.953,1400.38 609.953,47.2441 "/>
<polyline clip-path="url(#clip902)" style="stroke:#000000; stroke-linecap:round; stroke-linejoin:round; stroke-width:2; stroke-opacity:0.1; fill:none" points="877.547,1400.38 877.547,47.2441 "/>
<polyline clip-path="url(#clip902)" style="stroke:#000000; stroke-linecap:round; stroke-linejoin:round; stroke-width:2; stroke-opacity:0.1; fill:none" points="1145.14,1400.38 1145.14,47.2441 "/>
<polyline clip-path="url(#clip902)" style="stroke:#000000; stroke-linecap:round; stroke-linejoin:round; stroke-width:2; stroke-opacity:0.1; fill:none" points="1412.74,1400.38 1412.74,47.2441 "/>
<polyline clip-path="url(#clip902)" style="stroke:#000000; stroke-linecap:round; stroke-linejoin:round; stroke-width:2; stroke-opacity:0.1; fill:none" points="1680.33,1400.38 1680.33,47.2441 "/>
<polyline clip-path="url(#clip902)" style="stroke:#000000; stroke-linecap:round; stroke-linejoin:round; stroke-width:2; stroke-opacity:0.1; fill:none" points="1947.92,1400.38 1947.92,47.2441 "/>
<polyline clip-path="url(#clip902)" style="stroke:#000000; stroke-linecap:round; stroke-linejoin:round; stroke-width:2; stroke-opacity:0.1; fill:none" points="2215.52,1400.38 2215.52,47.2441 "/>
<polyline clip-path="url(#clip902)" style="stroke:#000000; stroke-linecap:round; stroke-linejoin:round; stroke-width:2; stroke-opacity:0.1; fill:none" points="205.121,1362.09 2352.76,1362.09 "/>
<polyline clip-path="url(#clip902)" style="stroke:#000000; stroke-linecap:round; stroke-linejoin:round; stroke-width:2; stroke-opacity:0.1; fill:none" points="205.121,1154.82 2352.76,1154.82 "/>
<polyline clip-path="url(#clip902)" style="stroke:#000000; stroke-linecap:round; stroke-linejoin:round; stroke-width:2; stroke-opacity:0.1; fill:none" points="205.121,947.556 2352.76,947.556 "/>
<polyline clip-path="url(#clip902)" style="stroke:#000000; stroke-linecap:round; stroke-linejoin:round; stroke-width:2; stroke-opacity:0.1; fill:none" points="205.121,740.291 2352.76,740.291 "/>
<polyline clip-path="url(#clip902)" style="stroke:#000000; stroke-linecap:round; stroke-linejoin:round; stroke-width:2; stroke-opacity:0.1; fill:none" points="205.121,533.026 2352.76,533.026 "/>
<polyline clip-path="url(#clip902)" style="stroke:#000000; stroke-linecap:round; stroke-linejoin:round; stroke-width:2; stroke-opacity:0.1; fill:none" points="205.121,325.761 2352.76,325.761 "/>
<polyline clip-path="url(#clip902)" style="stroke:#000000; stroke-linecap:round; stroke-linejoin:round; stroke-width:2; stroke-opacity:0.1; fill:none" points="205.121,118.496 2352.76,118.496 "/>
<polyline clip-path="url(#clip900)" style="stroke:#000000; stroke-linecap:round; stroke-linejoin:round; stroke-width:4; stroke-opacity:1; fill:none" points="205.121,1400.38 2352.76,1400.38 "/>
<polyline clip-path="url(#clip900)" style="stroke:#000000; stroke-linecap:round; stroke-linejoin:round; stroke-width:4; stroke-opacity:1; fill:none" points="342.359,1400.38 342.359,1381.49 "/>
<polyline clip-path="url(#clip900)" style="stroke:#000000; stroke-linecap:round; stroke-linejoin:round; stroke-width:4; stroke-opacity:1; fill:none" points="609.953,1400.38 609.953,1381.49 "/>
<polyline clip-path="url(#clip900)" style="stroke:#000000; stroke-linecap:round; stroke-linejoin:round; stroke-width:4; stroke-opacity:1; fill:none" points="877.547,1400.38 877.547,1381.49 "/>
<polyline clip-path="url(#clip900)" style="stroke:#000000; stroke-linecap:round; stroke-linejoin:round; stroke-width:4; stroke-opacity:1; fill:none" points="1145.14,1400.38 1145.14,1381.49 "/>
<polyline clip-path="url(#clip900)" style="stroke:#000000; stroke-linecap:round; stroke-linejoin:round; stroke-width:4; stroke-opacity:1; fill:none" points="1412.74,1400.38 1412.74,1381.49 "/>
<polyline clip-path="url(#clip900)" style="stroke:#000000; stroke-linecap:round; stroke-linejoin:round; stroke-width:4; stroke-opacity:1; fill:none" points="1680.33,1400.38 1680.33,1381.49 "/>
<polyline clip-path="url(#clip900)" style="stroke:#000000; stroke-linecap:round; stroke-linejoin:round; stroke-width:4; stroke-opacity:1; fill:none" points="1947.92,1400.38 1947.92,1381.49 "/>
<polyline clip-path="url(#clip900)" style="stroke:#000000; stroke-linecap:round; stroke-linejoin:round; stroke-width:4; stroke-opacity:1; fill:none" points="2215.52,1400.38 2215.52,1381.49 "/>
<path clip-path="url(#clip900)" d="M94.824 1519.02 Q90.0386 1520.76 88.5092 1525.36 Q87.0016 1529.95 89.2421 1536.1 Q91.4747 1542.24 95.5792 1544.78 Q99.7053 1547.32 104.491 1545.58 Q109.276 1543.84 110.762 1539.26 Q112.27 1534.67 110.037 1528.54 Q107.797 1522.38 103.692 1519.83 Q99.6095 1517.28 94.824 1519.02 M93.5256 1515.45 Q100.356 1512.97 106.116 1516.07 Q111.868 1519.15 114.67 1526.85 Q117.465 1534.53 115.046 1540.61 Q112.619 1546.66 105.789 1549.15 Q98.9373 1551.64 93.1636 1548.57 Q87.4116 1545.49 84.6089 1537.79 Q81.8063 1530.09 84.2331 1524.03 Q86.6737 1517.95 93.5256 1515.45 Z" fill="#000000" fill-rule="nonzero" fill-opacity="1" /><path clip-path="url(#clip900)" d="M123.355 1531.15 L117.988 1516.4 L121.99 1514.95 L127.302 1529.54 Q128.561 1533 130.543 1534.25 Q132.517 1535.48 135.215 1534.5 Q138.456 1533.32 139.574 1530.57 Q140.714 1527.81 139.416 1524.25 L134.389 1510.43 L138.391 1508.98 L147.258 1533.34 L143.256 1534.8 L141.894 1531.06 Q141.244 1533.8 139.704 1535.6 Q138.178 1537.36 135.633 1538.29 Q131.435 1539.81 128.31 1537.99 Q125.184 1536.18 123.355 1531.15 M127.845 1512.15 L127.845 1512.15 Z" fill="#000000" fill-rule="nonzero" fill-opacity="1" /><path clip-path="url(#clip900)" d="M148.076 1497.62 L150.594 1504.54 L158.838 1501.54 L159.97 1504.65 L151.726 1507.65 L156.54 1520.87 Q157.624 1523.85 158.738 1524.41 Q159.873 1524.95 162.375 1524.04 L166.486 1522.55 L167.705 1525.9 L163.594 1527.39 Q158.961 1529.08 156.573 1528 Q154.178 1526.9 152.516 1522.34 L147.702 1509.11 L144.765 1510.18 L143.633 1507.07 L146.57 1506 L144.052 1499.08 L148.076 1497.62 Z" fill="#000000" fill-rule="nonzero" fill-opacity="1" /><path clip-path="url(#clip900)" d="M179.894 1494.68 L181.272 1498.47 Q179.258 1498.22 177.273 1498.45 Q175.287 1498.68 173.33 1499.39 Q170.35 1500.47 169.181 1501.93 Q168.035 1503.39 168.7 1505.21 Q169.206 1506.61 170.565 1507.02 Q171.916 1507.42 175.397 1506.96 L176.878 1506.77 Q181.474 1506.13 183.867 1507.16 Q186.274 1508.15 187.359 1511.13 Q188.594 1514.53 186.617 1517.49 Q184.662 1520.44 179.964 1522.15 Q178.006 1522.86 175.732 1523.25 Q173.487 1523.65 170.861 1523.74 L169.357 1519.61 Q171.995 1519.95 174.362 1519.76 Q176.721 1519.54 178.831 1518.77 Q181.659 1517.74 182.833 1516.23 Q184 1514.7 183.359 1512.93 Q182.765 1511.3 181.339 1510.84 Q179.934 1510.36 175.922 1510.91 L174.411 1511.09 Q170.406 1511.66 168.167 1510.65 Q165.92 1509.62 164.891 1506.8 Q163.64 1503.36 165.396 1500.6 Q167.151 1497.84 171.632 1496.21 Q173.851 1495.41 175.927 1495.02 Q178.004 1494.63 179.894 1494.68 Z" fill="#000000" fill-rule="nonzero" fill-opacity="1" /><path clip-path="url(#clip900)" d="M187.311 1491.17 L191.314 1489.72 L200.181 1514.08 L196.179 1515.53 L187.311 1491.17 M183.86 1481.69 L187.862 1480.23 L189.707 1485.3 L185.704 1486.76 L183.86 1481.69 Z" fill="#000000" fill-rule="nonzero" fill-opacity="1" /><path clip-path="url(#clip900)" d="M217.065 1484.53 L212.268 1471.35 L216.27 1469.89 L228.589 1503.74 L224.587 1505.19 L223.257 1501.54 Q222.787 1504.17 221.239 1505.95 Q219.705 1507.69 217.007 1508.67 Q212.592 1510.27 208.525 1507.76 Q204.48 1505.25 202.39 1499.5 Q200.3 1493.76 201.779 1489.23 Q203.281 1484.69 207.697 1483.09 Q210.394 1482.11 212.696 1482.47 Q215.012 1482.81 217.065 1484.53 M206.522 1498 Q208.13 1502.41 210.853 1504.28 Q213.591 1506.12 216.767 1504.96 Q219.943 1503.81 220.859 1500.64 Q221.768 1497.45 220.161 1493.04 Q218.554 1488.62 215.816 1486.78 Q213.071 1484.92 209.895 1486.08 Q206.719 1487.24 205.81 1490.42 Q204.915 1493.58 206.522 1498 Z" fill="#000000" fill-rule="nonzero" fill-opacity="1" /><path clip-path="url(#clip900)" d="M252.874 1479.97 L253.586 1481.93 L235.184 1488.63 Q236.949 1492.66 239.96 1494.03 Q242.984 1495.37 246.965 1493.92 Q249.27 1493.08 251.218 1491.73 Q253.187 1490.38 254.907 1488.47 L256.285 1492.25 Q254.464 1493.95 252.376 1495.25 Q250.288 1496.55 247.96 1497.4 Q242.131 1499.52 237.481 1497.37 Q232.852 1495.21 230.746 1489.43 Q228.569 1483.45 230.514 1478.77 Q232.472 1474.07 237.954 1472.07 Q242.87 1470.29 246.875 1472.42 Q250.894 1474.53 252.874 1479.97 M248.444 1480.25 Q247.205 1476.98 244.687 1475.68 Q242.191 1474.38 239.232 1475.45 Q235.883 1476.67 234.548 1479.3 Q233.236 1481.92 234.182 1485.47 L248.444 1480.25 Z" fill="#000000" fill-rule="nonzero" fill-opacity="1" /><path clip-path="url(#clip900)" d="M266.755 1453.07 L273.302 1450.69 L289.634 1469.77 L289.921 1444.64 L296.468 1442.25 L308.288 1474.73 L304.003 1476.29 L293.624 1447.77 L293.357 1473.09 L288.941 1474.7 L272.459 1455.48 L282.839 1483.99 L278.575 1485.54 L266.755 1453.07 Z" fill="#000000" fill-rule="nonzero" fill-opacity="1" /><path clip-path="url(#clip900)" d="M310.899 1441.09 L315.34 1453.29 L320.865 1451.28 Q323.933 1450.17 325.029 1447.97 Q326.126 1445.77 325.058 1442.83 Q323.997 1439.92 321.744 1438.94 Q319.491 1437.96 316.424 1439.08 L310.899 1441.09 M305.191 1439.08 L315.11 1435.47 Q320.57 1433.48 324.256 1434.95 Q327.957 1436.38 329.691 1441.15 Q331.44 1445.96 329.529 1449.43 Q327.639 1452.91 322.18 1454.89 L316.655 1456.9 L321.405 1469.96 L317.011 1471.55 L305.191 1439.08 Z" fill="#000000" fill-rule="nonzero" fill-opacity="1" /><path clip-path="url(#clip900)" d="M332.055 1429.3 L336.448 1427.7 L348.269 1460.18 L343.875 1461.78 L332.055 1429.3 Z" fill="#000000" fill-rule="nonzero" fill-opacity="1" /><path clip-path="url(#clip900)" d="M391.482 1505.07 L398.029 1502.68 L414.361 1521.77 L414.648 1496.64 L421.195 1494.25 L433.015 1526.73 L428.73 1528.29 L418.351 1499.77 L418.084 1525.09 L413.668 1526.7 L397.186 1507.48 L407.566 1535.99 L403.302 1537.54 L391.482 1505.07 Z" fill="#000000" fill-rule="nonzero" fill-opacity="1" /><path clip-path="url(#clip900)" d="M435.626 1493.09 L440.067 1505.29 L445.592 1503.28 Q448.659 1502.17 449.756 1499.97 Q450.853 1497.77 449.785 1494.83 Q448.724 1491.92 446.471 1490.94 Q444.218 1489.96 441.151 1491.08 L435.626 1493.09 M429.918 1491.08 L439.837 1487.47 Q445.296 1485.48 448.983 1486.95 Q452.684 1488.38 454.418 1493.15 Q456.167 1497.95 454.256 1501.43 Q452.366 1504.91 446.907 1506.89 L441.382 1508.9 L446.132 1521.95 L441.738 1523.55 L429.918 1491.08 Z" fill="#000000" fill-rule="nonzero" fill-opacity="1" /><path clip-path="url(#clip900)" d="M456.782 1481.3 L461.175 1479.7 L472.996 1512.18 L468.602 1513.78 L456.782 1481.3 Z" fill="#000000" fill-rule="nonzero" fill-opacity="1" /><path clip-path="url(#clip900)" d="M502.769 1509.72 L503.901 1512.83 L480.757 1521.25 L479.625 1518.14 L502.769 1509.72 Z" fill="#000000" fill-rule="nonzero" fill-opacity="1" /><path clip-path="url(#clip900)" d="M492.194 1468.41 L496.588 1466.81 L508.408 1499.29 L504.014 1500.89 L492.194 1468.41 Z" fill="#000000" fill-rule="nonzero" fill-opacity="1" /><path clip-path="url(#clip900)" d="M523.903 1466.87 L525.281 1470.66 Q523.268 1470.4 521.282 1470.63 Q519.297 1470.86 517.339 1471.58 Q514.359 1472.66 513.19 1474.12 Q512.044 1475.57 512.709 1477.4 Q513.216 1478.79 514.574 1479.21 Q515.925 1479.6 519.406 1479.15 L520.887 1478.96 Q525.483 1478.32 527.876 1479.34 Q530.283 1480.34 531.368 1483.32 Q532.603 1486.71 530.626 1489.67 Q528.671 1492.63 523.973 1494.34 Q522.015 1495.05 519.741 1495.43 Q517.496 1495.83 514.87 1495.93 L513.366 1491.79 Q516.004 1492.14 518.371 1491.94 Q520.731 1491.72 522.84 1490.96 Q525.668 1489.93 526.843 1488.42 Q528.009 1486.88 527.368 1485.12 Q526.774 1483.49 525.348 1483.02 Q523.944 1482.55 519.931 1483.1 L518.42 1483.28 Q514.415 1483.85 512.176 1482.84 Q509.93 1481.81 508.9 1478.98 Q507.649 1475.55 509.405 1472.79 Q511.16 1470.03 515.641 1468.4 Q517.86 1467.59 519.936 1467.21 Q522.013 1466.82 523.903 1466.87 Z" fill="#000000" fill-rule="nonzero" fill-opacity="1" /><path clip-path="url(#clip900)" d="M556.228 1466.96 L556.941 1468.91 L538.539 1475.61 Q540.304 1479.65 543.314 1481.02 Q546.339 1482.35 550.319 1480.91 Q552.625 1480.07 554.573 1478.72 Q556.542 1477.36 558.262 1475.45 L559.639 1479.24 Q557.819 1480.93 555.731 1482.24 Q553.642 1483.54 551.315 1484.39 Q545.485 1486.51 540.835 1484.36 Q536.207 1482.2 534.101 1476.41 Q531.924 1470.43 533.868 1465.76 Q535.827 1461.05 541.308 1459.06 Q546.224 1457.27 550.23 1459.41 Q554.249 1461.52 556.228 1466.96 M551.798 1467.24 Q550.559 1463.97 548.041 1462.67 Q545.545 1461.36 542.587 1462.44 Q539.237 1463.66 537.903 1466.28 Q536.591 1468.91 537.537 1472.45 L551.798 1467.24 Z" fill="#000000" fill-rule="nonzero" fill-opacity="1" /><path clip-path="url(#clip900)" d="M582.494 1455.67 L587.846 1470.38 L583.844 1471.83 L578.54 1457.26 Q577.281 1453.8 575.307 1452.57 Q573.333 1451.34 570.635 1452.33 Q567.394 1453.51 566.276 1456.25 Q565.157 1459 566.456 1462.57 L571.467 1476.34 L567.443 1477.8 L558.576 1453.44 L562.6 1451.97 L563.977 1455.76 Q564.613 1453.04 566.154 1451.25 Q567.715 1449.45 570.26 1448.52 Q574.459 1446.99 577.562 1448.82 Q580.658 1450.62 582.494 1455.67 Z" fill="#000000" fill-rule="nonzero" fill-opacity="1" /><path clip-path="url(#clip900)" d="M604.339 1440.97 L599.542 1427.79 L603.544 1426.33 L615.863 1460.18 L611.861 1461.63 L610.53 1457.98 Q610.061 1460.61 608.513 1462.39 Q606.978 1464.13 604.281 1465.11 Q599.866 1466.71 595.799 1464.2 Q591.754 1461.69 589.664 1455.94 Q587.573 1450.2 589.053 1445.67 Q590.555 1441.13 594.971 1439.53 Q597.668 1438.55 599.97 1438.91 Q602.286 1439.25 604.339 1440.97 M593.796 1454.44 Q595.404 1458.85 598.127 1460.72 Q600.865 1462.56 604.041 1461.4 Q607.217 1460.25 608.133 1457.08 Q609.042 1453.89 607.435 1449.48 Q605.828 1445.06 603.09 1443.22 Q600.345 1441.36 597.169 1442.52 Q593.993 1443.68 593.084 1446.87 Q592.189 1450.02 593.796 1454.44 Z" fill="#000000" fill-rule="nonzero" fill-opacity="1" /><path clip-path="url(#clip900)" d="M667.886 1501.86 L674.433 1499.48 L690.764 1518.56 L691.052 1493.43 L697.599 1491.05 L709.419 1523.52 L705.134 1525.08 L694.755 1496.57 L694.487 1521.89 L690.072 1523.49 L673.59 1504.27 L683.969 1532.79 L679.706 1534.34 L667.886 1501.86 Z" fill="#000000" fill-rule="nonzero" fill-opacity="1" /><path clip-path="url(#clip900)" d="M712.03 1489.88 L716.471 1502.09 L721.996 1500.08 Q725.063 1498.96 726.16 1496.76 Q727.257 1494.56 726.188 1491.63 Q725.127 1488.71 722.875 1487.73 Q720.622 1486.76 717.555 1487.87 L712.03 1489.88 M706.322 1487.87 L716.24 1484.26 Q721.7 1482.27 725.387 1483.74 Q729.088 1485.18 730.822 1489.94 Q732.571 1494.75 730.66 1498.23 Q728.77 1501.7 723.31 1503.69 L717.785 1505.7 L722.536 1518.75 L718.142 1520.35 L706.322 1487.87 Z" fill="#000000" fill-rule="nonzero" fill-opacity="1" /><path clip-path="url(#clip900)" d="M733.185 1478.09 L737.579 1476.5 L749.399 1508.97 L745.006 1510.57 L733.185 1478.09 Z" fill="#000000" fill-rule="nonzero" fill-opacity="1" /><path clip-path="url(#clip900)" d="M779.173 1506.51 L780.305 1509.62 L757.161 1518.04 L756.028 1514.93 L779.173 1506.51 Z" fill="#000000" fill-rule="nonzero" fill-opacity="1" /><path clip-path="url(#clip900)" d="M768.598 1465.21 L772.992 1463.61 L784.812 1496.08 L780.418 1497.68 L768.598 1465.21 Z" fill="#000000" fill-rule="nonzero" fill-opacity="1" /><path clip-path="url(#clip900)" d="M799.994 1467.2 Q799.177 1467.06 798.309 1467.18 Q797.454 1467.27 796.497 1467.61 Q793.104 1468.85 792.084 1471.73 Q791.079 1474.59 792.583 1478.72 L797.254 1491.55 L793.23 1493.02 L784.363 1468.66 L788.387 1467.19 L789.764 1470.98 Q790.218 1468.3 791.853 1466.5 Q793.48 1464.67 796.374 1463.62 Q796.787 1463.47 797.311 1463.35 Q797.827 1463.21 798.476 1463.1 L799.994 1467.2 Z" fill="#000000" fill-rule="nonzero" fill-opacity="1" /><path clip-path="url(#clip900)" d="M826.759 1465.89 L827.472 1467.84 L809.069 1474.54 Q810.835 1478.58 813.845 1479.95 Q816.869 1481.29 820.85 1479.84 Q823.156 1479 825.103 1477.65 Q827.073 1476.29 828.793 1474.38 L830.17 1478.17 Q828.349 1479.87 826.261 1481.17 Q824.173 1482.47 821.846 1483.32 Q816.016 1485.44 811.366 1483.29 Q806.738 1481.13 804.632 1475.34 Q802.455 1469.36 804.399 1464.69 Q806.358 1459.99 811.839 1457.99 Q816.755 1456.2 820.761 1458.34 Q824.78 1460.45 826.759 1465.89 M822.329 1466.17 Q821.09 1462.9 818.572 1461.6 Q816.076 1460.29 813.118 1461.37 Q809.768 1462.59 808.434 1465.22 Q807.121 1467.84 808.068 1471.38 L822.329 1466.17 Z" fill="#000000" fill-rule="nonzero" fill-opacity="1" /><path clip-path="url(#clip900)" d="M847.131 1446.87 L848.493 1450.61 Q846.456 1450.29 844.571 1450.46 Q842.701 1450.6 840.96 1451.23 Q837.067 1452.65 835.816 1455.91 Q834.557 1459.16 836.18 1463.62 Q837.803 1468.07 840.859 1469.77 Q843.907 1471.44 847.801 1470.03 Q849.541 1469.39 851.071 1468.32 Q852.616 1467.22 853.972 1465.66 L855.318 1469.36 Q853.928 1470.75 852.265 1471.8 Q850.624 1472.84 848.601 1473.58 Q843.097 1475.58 838.598 1473.3 Q834.098 1471.02 831.96 1465.15 Q829.791 1459.19 831.811 1454.59 Q833.852 1449.98 839.551 1447.9 Q841.4 1447.23 843.305 1446.98 Q845.201 1446.71 847.131 1446.87 Z" fill="#000000" fill-rule="nonzero" fill-opacity="1" /><path clip-path="url(#clip900)" d="M850.88 1444.45 L855.122 1442.9 L870.177 1460.58 L870.348 1437.36 L874.59 1435.82 L874.321 1463.5 L868.883 1465.48 L850.88 1444.45 Z" fill="#000000" fill-rule="nonzero" fill-opacity="1" /><path clip-path="url(#clip900)" d="M896.674 1515.99 L903.222 1513.6 L919.553 1532.69 L919.84 1507.55 L926.388 1505.17 L938.208 1537.65 L933.923 1539.21 L923.543 1510.69 L923.276 1536.01 L918.86 1537.62 L902.379 1518.39 L912.758 1546.91 L908.495 1548.46 L896.674 1515.99 Z" fill="#000000" fill-rule="nonzero" fill-opacity="1" /><path clip-path="url(#clip900)" d="M940.818 1504.01 L945.26 1516.21 L950.785 1514.2 Q953.852 1513.08 954.949 1510.89 Q956.046 1508.69 954.977 1505.75 Q953.916 1502.84 951.663 1501.86 Q949.41 1500.88 946.343 1502 L940.818 1504.01 M935.11 1502 L945.029 1498.39 Q950.489 1496.4 954.176 1497.87 Q957.876 1499.3 959.61 1504.07 Q961.36 1508.87 959.448 1512.35 Q957.559 1515.82 952.099 1517.81 L946.574 1519.82 L951.324 1532.87 L946.93 1534.47 L935.11 1502 Z" fill="#000000" fill-rule="nonzero" fill-opacity="1" /><path clip-path="url(#clip900)" d="M961.974 1492.22 L966.368 1490.62 L978.188 1523.1 L973.794 1524.69 L961.974 1492.22 Z" fill="#000000" fill-rule="nonzero" fill-opacity="1" /><path clip-path="url(#clip900)" d="M1007.96 1520.63 L1009.09 1523.74 L985.949 1532.17 L984.817 1529.06 L1007.96 1520.63 Z" fill="#000000" fill-rule="nonzero" fill-opacity="1" /><path clip-path="url(#clip900)" d="M994.493 1480.38 L998.931 1478.77 L1015.75 1503.73 L1012.57 1473.8 L1017.51 1472.01 L1034.33 1496.97 L1031.15 1467.04 L1035.6 1465.42 L1039.27 1500.86 L1033.74 1502.87 L1016.63 1477.18 L1019.97 1507.89 L1014.45 1509.9 L994.493 1480.38 Z" fill="#000000" fill-rule="nonzero" fill-opacity="1" /><path clip-path="url(#clip900)" d="M1056.85 1480.6 Q1051.99 1482.36 1050.53 1484.15 Q1049.06 1485.94 1050.03 1488.62 Q1050.81 1490.75 1052.66 1491.51 Q1054.53 1492.23 1056.94 1491.35 Q1060.27 1490.14 1061.42 1487.06 Q1062.58 1483.96 1061.15 1480.04 L1060.83 1479.15 L1056.85 1480.6 M1064.23 1476.04 L1069.29 1489.94 L1065.28 1491.4 L1063.94 1487.7 Q1063.37 1490.41 1061.72 1492.22 Q1060.05 1494.01 1057.09 1495.09 Q1053.35 1496.45 1050.37 1495.17 Q1047.41 1493.86 1046.13 1490.34 Q1044.63 1486.23 1046.61 1483.14 Q1048.61 1480.05 1054.07 1478.06 L1059.69 1476.02 L1059.54 1475.62 Q1058.54 1472.86 1056.16 1472.03 Q1053.8 1471.16 1050.52 1472.36 Q1048.43 1473.12 1046.63 1474.34 Q1044.84 1475.56 1043.37 1477.22 L1042.03 1473.53 Q1043.92 1471.88 1045.83 1470.71 Q1047.74 1469.53 1049.7 1468.81 Q1054.98 1466.89 1058.59 1468.68 Q1062.2 1470.47 1064.23 1476.04 Z" fill="#000000" fill-rule="nonzero" fill-opacity="1" /><path clip-path="url(#clip900)" d="M1068.66 1462.58 L1072.66 1461.12 L1081.53 1485.48 L1077.53 1486.94 L1068.66 1462.58 M1065.21 1453.09 L1069.21 1451.63 L1071.06 1456.7 L1067.06 1458.16 L1065.21 1453.09 Z" fill="#000000" fill-rule="nonzero" fill-opacity="1" /><path clip-path="url(#clip900)" d="M1082.48 1449.71 L1085 1456.63 L1093.24 1453.63 L1094.37 1456.74 L1086.13 1459.74 L1090.94 1472.97 Q1092.03 1475.95 1093.14 1476.5 Q1094.28 1477.05 1096.78 1476.14 L1100.89 1474.64 L1102.11 1477.99 L1098 1479.49 Q1093.37 1481.17 1090.98 1480.1 Q1088.58 1479 1086.92 1474.43 L1082.11 1461.2 L1079.17 1462.27 L1078.04 1459.16 L1080.97 1458.09 L1078.46 1451.18 L1082.48 1449.71 Z" fill="#000000" fill-rule="nonzero" fill-opacity="1" /><path clip-path="url(#clip900)" d="M1113.99 1459.8 Q1109.14 1461.56 1107.67 1463.35 Q1106.2 1465.15 1107.18 1467.82 Q1107.95 1469.95 1109.8 1470.71 Q1111.67 1471.43 1114.08 1470.55 Q1117.41 1469.34 1118.56 1466.26 Q1119.72 1463.16 1118.29 1459.24 L1117.97 1458.35 L1113.99 1459.8 M1121.37 1455.24 L1126.43 1469.14 L1122.43 1470.6 L1121.08 1466.9 Q1120.52 1469.62 1118.86 1471.43 Q1117.2 1473.21 1114.24 1474.29 Q1110.5 1475.65 1107.52 1474.37 Q1104.55 1473.06 1103.27 1469.54 Q1101.77 1465.43 1103.75 1462.34 Q1105.76 1459.25 1111.22 1457.26 L1116.83 1455.22 L1116.69 1454.83 Q1115.68 1452.06 1113.31 1451.23 Q1110.95 1450.36 1107.66 1451.56 Q1105.57 1452.32 1103.78 1453.54 Q1101.98 1454.76 1100.52 1456.43 L1099.17 1452.73 Q1101.06 1451.08 1102.98 1449.91 Q1104.88 1448.73 1106.84 1448.01 Q1112.13 1446.09 1115.73 1447.88 Q1119.34 1449.67 1121.37 1455.24 Z" fill="#000000" fill-rule="nonzero" fill-opacity="1" /><path clip-path="url(#clip900)" d="M1122.35 1432.29 L1126.36 1430.84 L1138.67 1464.68 L1134.67 1466.14 L1122.35 1432.29 Z" fill="#000000" fill-rule="nonzero" fill-opacity="1" /><path clip-path="url(#clip900)" d="M1134.73 1427.79 L1138.73 1426.33 L1151.05 1460.18 L1147.05 1461.63 L1134.73 1427.79 Z" fill="#000000" fill-rule="nonzero" fill-opacity="1" /><path clip-path="url(#clip900)" d="M1148.09 1521.88 L1154.63 1519.49 L1170.96 1538.58 L1171.25 1513.44 L1177.8 1511.06 L1189.62 1543.54 L1185.33 1545.1 L1174.95 1516.58 L1174.69 1541.9 L1170.27 1543.51 L1153.79 1524.28 L1164.17 1552.8 L1159.91 1554.35 L1148.09 1521.88 Z" fill="#000000" fill-rule="nonzero" fill-opacity="1" /><path clip-path="url(#clip900)" d="M1192.23 1509.9 L1196.67 1522.1 L1202.2 1520.09 Q1205.26 1518.97 1206.36 1516.78 Q1207.46 1514.58 1206.39 1511.64 Q1205.33 1508.73 1203.07 1507.75 Q1200.82 1506.77 1197.75 1507.89 L1192.23 1509.9 M1186.52 1507.89 L1196.44 1504.28 Q1201.9 1502.29 1205.59 1503.76 Q1209.29 1505.19 1211.02 1509.96 Q1212.77 1514.76 1210.86 1518.24 Q1208.97 1521.71 1203.51 1523.7 L1197.98 1525.71 L1202.74 1538.76 L1198.34 1540.36 L1186.52 1507.89 Z" fill="#000000" fill-rule="nonzero" fill-opacity="1" /><path clip-path="url(#clip900)" d="M1213.38 1498.11 L1217.78 1496.51 L1229.6 1528.99 L1225.2 1530.58 L1213.38 1498.11 Z" fill="#000000" fill-rule="nonzero" fill-opacity="1" /><path clip-path="url(#clip900)" d="M1259.37 1526.52 L1260.5 1529.63 L1237.36 1538.06 L1236.23 1534.95 L1259.37 1526.52 Z" fill="#000000" fill-rule="nonzero" fill-opacity="1" /><path clip-path="url(#clip900)" d="M1270.48 1496.86 Q1272.06 1496.83 1273.96 1497.91 Q1275.88 1498.99 1278.23 1501.24 L1285.91 1508.49 L1281.19 1510.21 L1274.01 1503.39 Q1271.21 1500.71 1269.3 1500.2 Q1267.41 1499.68 1264.8 1500.63 L1260.02 1502.37 L1265.01 1516.1 L1260.62 1517.7 L1248.8 1485.22 L1258.72 1481.61 Q1264.28 1479.58 1267.87 1480.91 Q1271.46 1482.24 1273.17 1486.94 Q1274.29 1490.01 1273.59 1492.55 Q1272.91 1495.09 1270.48 1496.86 M1254.51 1487.23 L1258.7 1498.76 L1264.23 1496.75 Q1267.4 1495.59 1268.48 1493.55 Q1269.57 1491.48 1268.54 1488.63 Q1267.5 1485.78 1265.35 1484.94 Q1263.21 1484.06 1260.03 1485.22 L1254.51 1487.23 Z" fill="#000000" fill-rule="nonzero" fill-opacity="1" /><path clip-path="url(#clip900)" d="M1305.44 1486.45 L1306.15 1488.41 L1287.75 1495.11 Q1289.51 1499.15 1292.52 1500.52 Q1295.55 1501.85 1299.53 1500.41 Q1301.83 1499.57 1303.78 1498.22 Q1305.75 1496.86 1307.47 1494.95 L1308.85 1498.74 Q1307.03 1500.43 1304.94 1501.74 Q1302.85 1503.04 1300.52 1503.89 Q1294.69 1506.01 1290.04 1503.86 Q1285.41 1501.7 1283.31 1495.91 Q1281.13 1489.93 1283.08 1485.26 Q1285.03 1480.55 1290.52 1478.56 Q1295.43 1476.77 1299.44 1478.91 Q1303.46 1481.02 1305.44 1486.45 M1301.01 1486.74 Q1299.77 1483.47 1297.25 1482.17 Q1294.75 1480.86 1291.79 1481.94 Q1288.44 1483.16 1287.11 1485.78 Q1285.8 1488.4 1286.74 1491.95 L1301.01 1486.74 Z" fill="#000000" fill-rule="nonzero" fill-opacity="1" /><path clip-path="url(#clip900)" d="M1325.31 1470.75 L1320.51 1457.56 L1324.52 1456.11 L1336.84 1489.95 L1332.83 1491.41 L1331.5 1487.76 Q1331.03 1490.39 1329.49 1492.16 Q1327.95 1493.9 1325.25 1494.88 Q1320.84 1496.49 1316.77 1493.98 Q1312.73 1491.46 1310.64 1485.72 Q1308.55 1479.98 1310.03 1475.45 Q1311.53 1470.91 1315.94 1469.3 Q1318.64 1468.32 1320.94 1468.69 Q1323.26 1469.03 1325.31 1470.75 M1314.77 1484.22 Q1316.38 1488.63 1319.1 1490.5 Q1321.84 1492.33 1325.01 1491.18 Q1328.19 1490.02 1329.11 1486.86 Q1330.02 1483.67 1328.41 1479.25 Q1326.8 1474.84 1324.06 1473 Q1321.32 1471.14 1318.14 1472.3 Q1314.97 1473.45 1314.06 1476.64 Q1313.16 1479.8 1314.77 1484.22 Z" fill="#000000" fill-rule="nonzero" fill-opacity="1" /><path clip-path="url(#clip900)" d="M1341.17 1477.49 L1335.8 1462.74 L1339.8 1461.28 L1345.11 1475.88 Q1346.37 1479.34 1348.36 1480.59 Q1350.33 1481.82 1353.03 1480.83 Q1356.27 1479.65 1357.39 1476.91 Q1358.53 1474.15 1357.23 1470.58 L1352.2 1456.77 L1356.2 1455.32 L1365.07 1479.68 L1361.07 1481.13 L1359.71 1477.39 Q1359.06 1480.14 1357.52 1481.93 Q1355.99 1483.7 1353.45 1484.62 Q1349.25 1486.15 1346.12 1484.33 Q1343 1482.51 1341.17 1477.49 M1345.66 1458.49 L1345.66 1458.49 Z" fill="#000000" fill-rule="nonzero" fill-opacity="1" /><path clip-path="url(#clip900)" d="M1382.32 1446.87 L1383.68 1450.61 Q1381.64 1450.29 1379.76 1450.46 Q1377.89 1450.6 1376.15 1451.23 Q1372.26 1452.65 1371 1455.91 Q1369.75 1459.16 1371.37 1463.62 Q1372.99 1468.07 1376.05 1469.77 Q1379.1 1471.44 1382.99 1470.03 Q1384.73 1469.39 1386.26 1468.32 Q1387.8 1467.22 1389.16 1465.66 L1390.51 1469.36 Q1389.12 1470.75 1387.45 1471.8 Q1385.81 1472.84 1383.79 1473.58 Q1378.29 1475.58 1373.79 1473.3 Q1369.29 1471.02 1367.15 1465.15 Q1364.98 1459.19 1367 1454.59 Q1369.04 1449.98 1374.74 1447.9 Q1376.59 1447.23 1378.49 1446.98 Q1380.39 1446.71 1382.32 1446.87 Z" fill="#000000" fill-rule="nonzero" fill-opacity="1" /><path clip-path="url(#clip900)" d="M1413.85 1447 L1414.56 1448.95 L1396.16 1455.65 Q1397.92 1459.69 1400.93 1461.06 Q1403.96 1462.4 1407.94 1460.95 Q1410.24 1460.11 1412.19 1458.76 Q1414.16 1457.4 1415.88 1455.49 L1417.26 1459.28 Q1415.44 1460.98 1413.35 1462.28 Q1411.26 1463.58 1408.93 1464.43 Q1403.11 1466.55 1398.45 1464.4 Q1393.83 1462.24 1391.72 1456.45 Q1389.54 1450.47 1391.49 1445.8 Q1393.45 1441.09 1398.93 1439.1 Q1403.84 1437.31 1407.85 1439.45 Q1411.87 1441.56 1413.85 1447 M1409.42 1447.28 Q1408.18 1444.01 1405.66 1442.71 Q1403.16 1441.4 1400.21 1442.48 Q1396.86 1443.7 1395.52 1446.33 Q1394.21 1448.95 1395.16 1452.49 L1409.42 1447.28 Z" fill="#000000" fill-rule="nonzero" fill-opacity="1" /><path clip-path="url(#clip900)" d="M1372.07 1537.75 L1378.61 1535.37 L1394.95 1554.45 L1395.23 1529.32 L1401.78 1526.93 L1413.6 1559.41 L1409.31 1560.97 L1398.94 1532.45 L1398.67 1557.78 L1394.25 1559.38 L1377.77 1540.16 L1388.15 1568.67 L1383.89 1570.23 L1372.07 1537.75 Z" fill="#000000" fill-rule="nonzero" fill-opacity="1" /><path clip-path="url(#clip900)" d="M1416.21 1525.77 L1420.65 1537.97 L1426.18 1535.96 Q1429.24 1534.85 1430.34 1532.65 Q1431.44 1530.45 1430.37 1527.52 Q1429.31 1524.6 1427.06 1523.62 Q1424.8 1522.64 1421.74 1523.76 L1416.21 1525.77 M1410.5 1523.76 L1420.42 1520.15 Q1425.88 1518.16 1429.57 1519.63 Q1433.27 1521.07 1435 1525.83 Q1436.75 1530.64 1434.84 1534.12 Q1432.95 1537.59 1427.49 1539.57 L1421.97 1541.59 L1426.72 1554.64 L1422.32 1556.24 L1410.5 1523.76 Z" fill="#000000" fill-rule="nonzero" fill-opacity="1" /><path clip-path="url(#clip900)" d="M1437.37 1513.98 L1441.76 1512.38 L1453.58 1544.86 L1449.19 1546.46 L1437.37 1513.98 Z" fill="#000000" fill-rule="nonzero" fill-opacity="1" /><path clip-path="url(#clip900)" d="M1483.35 1542.4 L1484.49 1545.51 L1461.34 1553.93 L1460.21 1550.82 L1483.35 1542.4 Z" fill="#000000" fill-rule="nonzero" fill-opacity="1" /><path clip-path="url(#clip900)" d="M1485.21 1501.47 L1485.13 1519.8 L1497.07 1515.46 L1485.21 1501.47 M1481.15 1498.05 L1486.13 1496.23 L1510.33 1524.2 L1505.76 1525.87 L1499.77 1518.61 L1485.13 1523.94 L1485.21 1533.35 L1480.57 1535.03 L1481.15 1498.05 Z" fill="#000000" fill-rule="nonzero" fill-opacity="1" /><path clip-path="url(#clip900)" d="M1502.58 1488.69 L1506.58 1487.24 L1518.9 1521.08 L1514.9 1522.54 L1502.58 1488.69 Z" fill="#000000" fill-rule="nonzero" fill-opacity="1" /><path clip-path="url(#clip900)" d="M1514.96 1484.19 L1518.96 1482.73 L1531.28 1516.58 L1527.28 1518.04 L1514.96 1484.19 Z" fill="#000000" fill-rule="nonzero" fill-opacity="1" /><path clip-path="url(#clip900)" d="M1546.26 1487.77 Q1545.45 1487.63 1544.58 1487.74 Q1543.73 1487.83 1542.77 1488.18 Q1539.37 1489.42 1538.36 1492.3 Q1537.35 1495.16 1538.85 1499.29 L1543.52 1512.12 L1539.5 1513.59 L1530.63 1489.22 L1534.66 1487.76 L1536.04 1491.54 Q1536.49 1488.87 1538.12 1487.06 Q1539.75 1485.24 1542.64 1484.19 Q1543.06 1484.04 1543.58 1483.92 Q1544.1 1483.78 1544.75 1483.67 L1546.26 1487.77 Z" fill="#000000" fill-rule="nonzero" fill-opacity="1" /><path clip-path="url(#clip900)" d="M1573.03 1486.45 L1573.74 1488.41 L1555.34 1495.11 Q1557.11 1499.15 1560.12 1500.52 Q1563.14 1501.85 1567.12 1500.41 Q1569.43 1499.57 1571.37 1498.22 Q1573.34 1496.86 1575.06 1494.95 L1576.44 1498.74 Q1574.62 1500.43 1572.53 1501.74 Q1570.44 1503.04 1568.12 1503.89 Q1562.29 1506.01 1557.64 1503.86 Q1553.01 1501.7 1550.9 1495.91 Q1548.73 1489.93 1550.67 1485.26 Q1552.63 1480.55 1558.11 1478.56 Q1563.03 1476.77 1567.03 1478.91 Q1571.05 1481.02 1573.03 1486.45 M1568.6 1486.74 Q1567.36 1483.47 1564.84 1482.17 Q1562.35 1480.86 1559.39 1481.94 Q1556.04 1483.16 1554.7 1485.78 Q1553.39 1488.4 1554.34 1491.95 L1568.6 1486.74 Z" fill="#000000" fill-rule="nonzero" fill-opacity="1" /><path clip-path="url(#clip900)" d="M1592.91 1470.75 L1588.11 1457.56 L1592.11 1456.11 L1604.43 1489.95 L1600.43 1491.41 L1599.1 1487.76 Q1598.63 1490.39 1597.08 1492.16 Q1595.55 1493.9 1592.85 1494.88 Q1588.43 1496.49 1584.37 1493.98 Q1580.32 1491.46 1578.23 1485.72 Q1576.14 1479.98 1577.62 1475.45 Q1579.12 1470.91 1583.54 1469.3 Q1586.24 1468.32 1588.54 1468.69 Q1590.85 1469.03 1592.91 1470.75 M1582.36 1484.22 Q1583.97 1488.63 1586.69 1490.5 Q1589.43 1492.33 1592.61 1491.18 Q1595.78 1490.02 1596.7 1486.86 Q1597.61 1483.67 1596 1479.25 Q1594.4 1474.84 1591.66 1473 Q1588.91 1471.14 1585.74 1472.3 Q1582.56 1473.45 1581.65 1476.64 Q1580.76 1479.8 1582.36 1484.22 Z" fill="#000000" fill-rule="nonzero" fill-opacity="1" /><path clip-path="url(#clip900)" d="M1608.76 1477.49 L1603.39 1462.74 L1607.4 1461.28 L1612.71 1475.88 Q1613.97 1479.34 1615.95 1480.59 Q1617.92 1481.82 1620.62 1480.83 Q1623.86 1479.65 1624.98 1476.91 Q1626.12 1474.15 1624.82 1470.58 L1619.8 1456.77 L1623.8 1455.32 L1632.66 1479.68 L1628.66 1481.13 L1627.3 1477.39 Q1626.65 1480.14 1625.11 1481.93 Q1623.58 1483.7 1621.04 1484.62 Q1616.84 1486.15 1613.72 1484.33 Q1610.59 1482.51 1608.76 1477.49 M1613.25 1458.49 L1613.25 1458.49 Z" fill="#000000" fill-rule="nonzero" fill-opacity="1" /><path clip-path="url(#clip900)" d="M1649.91 1446.87 L1651.28 1450.61 Q1649.24 1450.29 1647.35 1450.46 Q1645.48 1450.6 1643.74 1451.23 Q1639.85 1452.65 1638.6 1455.91 Q1637.34 1459.16 1638.96 1463.62 Q1640.59 1468.07 1643.64 1469.77 Q1646.69 1471.44 1650.58 1470.03 Q1652.32 1469.39 1653.85 1468.32 Q1655.4 1467.22 1656.75 1465.66 L1658.1 1469.36 Q1656.71 1470.75 1655.05 1471.8 Q1653.41 1472.84 1651.38 1473.58 Q1645.88 1475.58 1641.38 1473.3 Q1636.88 1471.02 1634.74 1465.15 Q1632.57 1459.19 1634.59 1454.59 Q1636.63 1449.98 1642.33 1447.9 Q1644.18 1447.23 1646.09 1446.98 Q1647.98 1446.71 1649.91 1446.87 Z" fill="#000000" fill-rule="nonzero" fill-opacity="1" /><path clip-path="url(#clip900)" d="M1681.44 1447 L1682.15 1448.95 L1663.75 1455.65 Q1665.52 1459.69 1668.53 1461.06 Q1671.55 1462.4 1675.53 1460.95 Q1677.84 1460.11 1679.79 1458.76 Q1681.76 1457.4 1683.48 1455.49 L1684.85 1459.28 Q1683.03 1460.98 1680.94 1462.28 Q1678.86 1463.58 1676.53 1464.43 Q1670.7 1466.55 1666.05 1464.4 Q1661.42 1462.24 1659.31 1456.45 Q1657.14 1450.47 1659.08 1445.8 Q1661.04 1441.09 1666.52 1439.1 Q1671.44 1437.31 1675.44 1439.45 Q1679.46 1441.56 1681.44 1447 M1677.01 1447.28 Q1675.77 1444.01 1673.26 1442.71 Q1670.76 1441.4 1667.8 1442.48 Q1664.45 1443.7 1663.12 1446.33 Q1661.8 1448.95 1662.75 1452.49 L1677.01 1447.28 Z" fill="#000000" fill-rule="nonzero" fill-opacity="1" /><path clip-path="url(#clip900)" d="M1578.73 1559.93 L1585.28 1557.54 L1601.61 1576.63 L1601.9 1551.49 L1608.45 1549.11 L1620.27 1581.59 L1615.98 1583.15 L1605.6 1554.63 L1605.33 1579.95 L1600.92 1581.56 L1584.44 1562.33 L1594.82 1590.85 L1590.55 1592.4 L1578.73 1559.93 Z" fill="#000000" fill-rule="nonzero" fill-opacity="1" /><path clip-path="url(#clip900)" d="M1622.88 1547.95 L1627.32 1560.15 L1632.84 1558.14 Q1635.91 1557.02 1637.01 1554.83 Q1638.1 1552.63 1637.04 1549.69 Q1635.98 1546.78 1633.72 1545.8 Q1631.47 1544.82 1628.4 1545.94 L1622.88 1547.95 M1617.17 1545.94 L1627.09 1542.33 Q1632.55 1540.34 1636.23 1541.8 Q1639.94 1543.24 1641.67 1548.01 Q1643.42 1552.81 1641.51 1556.29 Q1639.62 1559.76 1634.16 1561.75 L1628.63 1563.76 L1633.38 1576.81 L1628.99 1578.41 L1617.17 1545.94 Z" fill="#000000" fill-rule="nonzero" fill-opacity="1" /><path clip-path="url(#clip900)" d="M1644.03 1536.16 L1648.43 1534.56 L1660.25 1567.03 L1655.85 1568.63 L1644.03 1536.16 Z" fill="#000000" fill-rule="nonzero" fill-opacity="1" /><path clip-path="url(#clip900)" d="M1690.02 1564.57 L1691.15 1567.68 L1668.01 1576.11 L1666.88 1573 L1690.02 1564.57 Z" fill="#000000" fill-rule="nonzero" fill-opacity="1" /><path clip-path="url(#clip900)" d="M1704.67 1516.92 L1706.36 1521.55 Q1703.39 1520.29 1700.49 1520.19 Q1697.62 1520.08 1694.79 1521.11 Q1689.22 1523.13 1687.51 1527.63 Q1685.79 1532.1 1688.13 1538.53 Q1690.47 1544.95 1694.67 1547.29 Q1698.86 1549.61 1704.43 1547.58 Q1707.26 1546.55 1709.39 1544.62 Q1711.54 1542.68 1713 1539.8 L1714.67 1544.39 Q1712.94 1546.8 1710.63 1548.52 Q1708.35 1550.24 1705.48 1551.29 Q1698.11 1553.97 1692.23 1551.01 Q1686.34 1548.03 1683.5 1540.22 Q1680.65 1532.39 1683.25 1526.34 Q1685.84 1520.28 1693.22 1517.59 Q1696.13 1516.53 1698.98 1516.38 Q1701.85 1516.2 1704.67 1516.92 Z" fill="#000000" fill-rule="nonzero" fill-opacity="1" /><path clip-path="url(#clip900)" d="M1723.79 1519.49 Q1720.57 1520.67 1719.62 1523.87 Q1718.66 1527.05 1720.25 1531.43 Q1721.84 1535.8 1724.61 1537.65 Q1727.39 1539.47 1730.63 1538.29 Q1733.83 1537.12 1734.78 1533.92 Q1735.73 1530.72 1734.15 1526.37 Q1732.57 1522.04 1729.79 1520.2 Q1726.99 1518.33 1723.79 1519.49 M1722.56 1516.1 Q1727.78 1514.2 1731.99 1516.51 Q1736.21 1518.82 1738.39 1524.82 Q1740.57 1530.8 1738.83 1535.3 Q1737.09 1539.78 1731.87 1541.68 Q1726.62 1543.59 1722.41 1541.28 Q1718.21 1538.94 1716.03 1532.96 Q1713.85 1526.96 1715.57 1522.49 Q1717.31 1518.01 1722.56 1516.1 Z" fill="#000000" fill-rule="nonzero" fill-opacity="1" /><path clip-path="url(#clip900)" d="M1761.25 1507.98 Q1761.77 1504.73 1763.4 1502.69 Q1765.02 1500.65 1767.84 1499.62 Q1771.65 1498.23 1774.69 1500.16 Q1777.72 1502.06 1779.51 1506.97 L1784.86 1521.68 L1780.84 1523.14 L1775.54 1508.57 Q1774.26 1505.07 1772.4 1503.82 Q1770.55 1502.58 1768 1503.5 Q1764.89 1504.63 1763.84 1507.36 Q1762.78 1510.08 1764.08 1513.65 L1769.09 1527.42 L1765.07 1528.88 L1759.77 1514.31 Q1758.48 1510.78 1756.63 1509.56 Q1754.78 1508.32 1752.19 1509.26 Q1749.12 1510.37 1748.08 1513.12 Q1747.02 1515.84 1748.31 1519.39 L1753.32 1533.16 L1749.3 1534.62 L1740.43 1510.26 L1744.46 1508.8 L1745.83 1512.58 Q1746.39 1509.84 1747.92 1508.08 Q1749.44 1506.32 1752.07 1505.36 Q1754.73 1504.39 1757.07 1505.07 Q1759.43 1505.74 1761.25 1507.98 Z" fill="#000000" fill-rule="nonzero" fill-opacity="1" /><path clip-path="url(#clip900)" d="M1804.65 1492.18 Q1805.17 1488.94 1806.79 1486.9 Q1808.41 1484.85 1811.24 1483.82 Q1815.05 1482.44 1818.09 1484.36 Q1821.12 1486.26 1822.91 1491.18 L1828.26 1505.88 L1824.24 1507.35 L1818.93 1492.77 Q1817.66 1489.27 1815.8 1488.03 Q1813.94 1486.78 1811.4 1487.71 Q1808.29 1488.84 1807.23 1491.56 Q1806.18 1494.29 1807.48 1497.85 L1812.49 1511.62 L1808.47 1513.09 L1803.16 1498.51 Q1801.88 1494.99 1800.03 1493.77 Q1798.17 1492.52 1795.58 1493.46 Q1792.52 1494.58 1791.47 1497.32 Q1790.42 1500.05 1791.71 1503.59 L1796.72 1517.36 L1792.7 1518.83 L1783.83 1494.47 L1787.85 1493 L1789.23 1496.79 Q1789.78 1494.05 1791.31 1492.28 Q1792.84 1490.52 1795.47 1489.56 Q1798.12 1488.6 1800.46 1489.27 Q1802.82 1489.94 1804.65 1492.18 Z" fill="#000000" fill-rule="nonzero" fill-opacity="1" /><path clip-path="url(#clip900)" d="M1857.45 1503.64 L1858.58 1506.75 L1835.43 1515.17 L1834.3 1512.06 L1857.45 1503.64 Z" fill="#000000" fill-rule="nonzero" fill-opacity="1" /><path clip-path="url(#clip900)" d="M1865.13 1469.11 Q1864.31 1468.97 1863.44 1469.08 Q1862.59 1469.17 1861.63 1469.52 Q1858.24 1470.76 1857.22 1473.64 Q1856.21 1476.49 1857.72 1480.63 L1862.39 1493.46 L1858.36 1494.93 L1849.5 1470.56 L1853.52 1469.1 L1854.9 1472.88 Q1855.35 1470.21 1856.99 1468.4 Q1858.62 1466.58 1861.51 1465.53 Q1861.92 1465.38 1862.45 1465.26 Q1862.96 1465.12 1863.61 1465.01 L1865.13 1469.11 Z" fill="#000000" fill-rule="nonzero" fill-opacity="1" /><path clip-path="url(#clip900)" d="M1883.45 1471.93 Q1878.6 1473.69 1877.13 1475.48 Q1875.66 1477.27 1876.64 1479.95 Q1877.41 1482.08 1879.26 1482.84 Q1881.13 1483.56 1883.54 1482.68 Q1886.87 1481.47 1888.02 1478.39 Q1889.18 1475.29 1887.75 1471.37 L1887.43 1470.48 L1883.45 1471.93 M1890.83 1467.37 L1895.89 1481.27 L1891.88 1482.73 L1890.54 1479.03 Q1889.98 1481.75 1888.32 1483.56 Q1886.65 1485.34 1883.7 1486.42 Q1879.95 1487.78 1876.98 1486.5 Q1874.01 1485.19 1872.73 1481.67 Q1871.23 1477.56 1873.21 1474.47 Q1875.22 1471.38 1880.67 1469.39 L1886.29 1467.35 L1886.14 1466.96 Q1885.14 1464.19 1882.77 1463.36 Q1880.41 1462.49 1877.12 1463.69 Q1875.03 1464.45 1873.24 1465.67 Q1871.44 1466.89 1869.98 1468.55 L1868.63 1464.86 Q1870.52 1463.21 1872.43 1462.04 Q1874.34 1460.86 1876.3 1460.14 Q1881.59 1458.22 1885.19 1460.01 Q1888.8 1461.8 1890.83 1467.37 Z" fill="#000000" fill-rule="nonzero" fill-opacity="1" /><path clip-path="url(#clip900)" d="M1919.03 1456.19 L1924.38 1470.9 L1920.38 1472.35 L1915.08 1457.78 Q1913.82 1454.32 1911.84 1453.09 Q1909.87 1451.87 1907.17 1452.85 Q1903.93 1454.03 1902.81 1456.78 Q1901.69 1459.52 1902.99 1463.09 L1908 1476.86 L1903.98 1478.32 L1895.11 1453.96 L1899.14 1452.5 L1900.51 1456.28 Q1901.15 1453.56 1902.69 1451.77 Q1904.25 1449.97 1906.8 1449.04 Q1910.99 1447.52 1914.1 1449.34 Q1917.19 1451.15 1919.03 1456.19 Z" fill="#000000" fill-rule="nonzero" fill-opacity="1" /><path clip-path="url(#clip900)" d="M1919.89 1434.2 L1923.92 1432.74 L1931.19 1452.73 L1939.31 1437.87 L1944.42 1436.01 L1935.65 1452.11 L1953.83 1460.18 L1948.61 1462.08 L1931.91 1454.68 L1936.24 1466.58 L1932.21 1468.05 L1919.89 1434.2 Z" fill="#000000" fill-rule="nonzero" fill-opacity="1" /><path clip-path="url(#clip900)" d="M1934.36 1527.89 L1940.91 1525.5 L1957.24 1544.59 L1957.52 1519.45 L1964.07 1517.07 L1975.89 1549.55 L1971.61 1551.11 L1961.23 1522.59 L1960.96 1547.91 L1956.54 1549.52 L1940.06 1530.29 L1950.44 1558.81 L1946.18 1560.36 L1934.36 1527.89 Z" fill="#000000" fill-rule="nonzero" fill-opacity="1" /><path clip-path="url(#clip900)" d="M1978.5 1515.91 L1982.94 1528.11 L1988.47 1526.1 Q1991.54 1524.98 1992.63 1522.79 Q1993.73 1520.59 1992.66 1517.65 Q1991.6 1514.74 1989.35 1513.76 Q1987.09 1512.78 1984.03 1513.9 L1978.5 1515.91 M1972.79 1513.9 L1982.71 1510.29 Q1988.17 1508.3 1991.86 1509.76 Q1995.56 1511.2 1997.29 1515.96 Q1999.04 1520.77 1997.13 1524.25 Q1995.24 1527.72 1989.78 1529.71 L1984.26 1531.72 L1989.01 1544.77 L1984.61 1546.37 L1972.79 1513.9 Z" fill="#000000" fill-rule="nonzero" fill-opacity="1" /><path clip-path="url(#clip900)" d="M1999.66 1504.12 L2004.05 1502.52 L2015.87 1534.99 L2011.48 1536.59 L1999.66 1504.12 Z" fill="#000000" fill-rule="nonzero" fill-opacity="1" /><path clip-path="url(#clip900)" d="M2045.64 1532.53 L2046.78 1535.64 L2023.63 1544.07 L2022.5 1540.96 L2045.64 1532.53 Z" fill="#000000" fill-rule="nonzero" fill-opacity="1" /><path clip-path="url(#clip900)" d="M2032.18 1492.28 L2036.61 1490.67 L2053.44 1515.63 L2050.25 1485.7 L2055.19 1483.91 L2072.01 1508.87 L2068.83 1478.94 L2073.29 1477.32 L2076.95 1512.76 L2071.43 1514.77 L2054.31 1489.08 L2057.66 1519.79 L2052.13 1521.8 L2032.18 1492.28 Z" fill="#000000" fill-rule="nonzero" fill-opacity="1" /><path clip-path="url(#clip900)" d="M2094.53 1492.5 Q2089.68 1494.26 2088.21 1496.05 Q2086.74 1497.84 2087.72 1500.52 Q2088.49 1502.65 2090.35 1503.4 Q2092.21 1504.13 2094.63 1503.25 Q2097.95 1502.04 2099.1 1498.96 Q2100.26 1495.86 2098.83 1491.94 L2098.51 1491.05 L2094.53 1492.5 M2101.91 1487.94 L2106.97 1501.84 L2102.97 1503.29 L2101.62 1499.6 Q2101.06 1502.31 2099.4 1504.12 Q2097.74 1505.91 2094.78 1506.99 Q2091.04 1508.35 2088.06 1507.07 Q2085.09 1505.76 2083.81 1502.24 Q2082.31 1498.12 2084.3 1495.04 Q2086.3 1491.95 2091.76 1489.96 L2097.37 1487.92 L2097.23 1487.52 Q2096.22 1484.76 2093.85 1483.93 Q2091.49 1483.06 2088.2 1484.26 Q2086.12 1485.02 2084.32 1486.24 Q2082.52 1487.46 2081.06 1489.12 L2079.71 1485.43 Q2081.6 1483.78 2083.52 1482.61 Q2085.42 1481.42 2087.38 1480.71 Q2092.67 1478.79 2096.28 1480.58 Q2099.88 1482.37 2101.91 1487.94 Z" fill="#000000" fill-rule="nonzero" fill-opacity="1" /><path clip-path="url(#clip900)" d="M2106.35 1474.47 L2110.35 1473.02 L2119.22 1497.38 L2115.21 1498.84 L2106.35 1474.47 M2102.89 1464.99 L2106.9 1463.53 L2108.74 1468.6 L2104.74 1470.06 L2102.89 1464.99 Z" fill="#000000" fill-rule="nonzero" fill-opacity="1" /><path clip-path="url(#clip900)" d="M2120.16 1461.61 L2122.68 1468.53 L2130.93 1465.53 L2132.06 1468.64 L2123.81 1471.64 L2128.63 1484.86 Q2129.71 1487.84 2130.83 1488.4 Q2131.96 1488.95 2134.46 1488.04 L2138.57 1486.54 L2139.79 1489.89 L2135.68 1491.39 Q2131.05 1493.07 2128.66 1492 Q2126.27 1490.9 2124.6 1486.33 L2119.79 1473.1 L2116.85 1474.17 L2115.72 1471.06 L2118.66 1469.99 L2116.14 1463.08 L2120.16 1461.61 Z" fill="#000000" fill-rule="nonzero" fill-opacity="1" /><path clip-path="url(#clip900)" d="M2151.67 1471.7 Q2146.82 1473.46 2145.35 1475.25 Q2143.89 1477.04 2144.86 1479.72 Q2145.64 1481.85 2147.49 1482.61 Q2149.35 1483.33 2151.77 1482.45 Q2155.1 1481.24 2156.24 1478.16 Q2157.4 1475.06 2155.98 1471.14 L2155.65 1470.25 L2151.67 1471.7 M2159.05 1467.14 L2164.11 1481.04 L2160.11 1482.5 L2158.76 1478.8 Q2158.2 1481.52 2156.54 1483.33 Q2154.88 1485.11 2151.92 1486.19 Q2148.18 1487.55 2145.2 1486.27 Q2142.24 1484.96 2140.95 1481.44 Q2139.46 1477.33 2141.44 1474.24 Q2143.44 1471.15 2148.9 1469.16 L2154.51 1467.12 L2154.37 1466.73 Q2153.36 1463.96 2150.99 1463.13 Q2148.63 1462.26 2145.35 1463.46 Q2143.26 1464.22 2141.46 1465.44 Q2139.66 1466.66 2138.2 1468.32 L2136.85 1464.63 Q2138.74 1462.98 2140.66 1461.81 Q2142.57 1460.63 2144.52 1459.91 Q2149.81 1457.99 2153.42 1459.78 Q2157.03 1461.57 2159.05 1467.14 Z" fill="#000000" fill-rule="nonzero" fill-opacity="1" /><path clip-path="url(#clip900)" d="M2187.26 1455.96 L2192.61 1470.67 L2188.6 1472.12 L2183.3 1457.55 Q2182.04 1454.09 2180.07 1452.86 Q2178.09 1451.64 2175.4 1452.62 Q2172.15 1453.8 2171.04 1456.55 Q2169.92 1459.29 2171.22 1462.86 L2176.23 1476.63 L2172.2 1478.09 L2163.34 1453.73 L2167.36 1452.27 L2168.74 1456.05 Q2169.37 1453.33 2170.91 1451.54 Q2172.48 1449.74 2175.02 1448.81 Q2179.22 1447.29 2182.32 1449.11 Q2185.42 1450.92 2187.26 1455.96 Z" fill="#000000" fill-rule="nonzero" fill-opacity="1" /><path clip-path="url(#clip900)" d="M2211.55 1466.34 Q2211.44 1471.3 2210.31 1473.22 Q2209.18 1475.13 2206.49 1476.11 L2203.29 1477.27 L2202.07 1473.92 L2204.42 1473.07 Q2206.07 1472.47 2206.7 1471.35 Q2207.33 1470.24 2207.38 1466.92 L2207.43 1464.83 L2188.85 1444.45 L2193.09 1442.9 L2207.64 1459.19 L2208.32 1437.36 L2212.56 1435.82 L2211.55 1466.34 Z" fill="#000000" fill-rule="nonzero" fill-opacity="1" /><polyline clip-path="url(#clip900)" style="stroke:#000000; stroke-linecap:round; stroke-linejoin:round; stroke-width:4; stroke-opacity:1; fill:none" points="205.121,1400.38 205.121,47.2441 "/>
<polyline clip-path="url(#clip900)" style="stroke:#000000; stroke-linecap:round; stroke-linejoin:round; stroke-width:4; stroke-opacity:1; fill:none" points="205.121,1362.09 224.019,1362.09 "/>
<polyline clip-path="url(#clip900)" style="stroke:#000000; stroke-linecap:round; stroke-linejoin:round; stroke-width:4; stroke-opacity:1; fill:none" points="205.121,1154.82 224.019,1154.82 "/>
<polyline clip-path="url(#clip900)" style="stroke:#000000; stroke-linecap:round; stroke-linejoin:round; stroke-width:4; stroke-opacity:1; fill:none" points="205.121,947.556 224.019,947.556 "/>
<polyline clip-path="url(#clip900)" style="stroke:#000000; stroke-linecap:round; stroke-linejoin:round; stroke-width:4; stroke-opacity:1; fill:none" points="205.121,740.291 224.019,740.291 "/>
<polyline clip-path="url(#clip900)" style="stroke:#000000; stroke-linecap:round; stroke-linejoin:round; stroke-width:4; stroke-opacity:1; fill:none" points="205.121,533.026 224.019,533.026 "/>
<polyline clip-path="url(#clip900)" style="stroke:#000000; stroke-linecap:round; stroke-linejoin:round; stroke-width:4; stroke-opacity:1; fill:none" points="205.121,325.761 224.019,325.761 "/>
<polyline clip-path="url(#clip900)" style="stroke:#000000; stroke-linecap:round; stroke-linejoin:round; stroke-width:4; stroke-opacity:1; fill:none" points="205.121,118.496 224.019,118.496 "/>
<path clip-path="url(#clip900)" d="M157.177 1347.89 Q153.566 1347.89 151.737 1351.45 Q149.931 1354.99 149.931 1362.12 Q149.931 1369.23 151.737 1372.79 Q153.566 1376.33 157.177 1376.33 Q160.811 1376.33 162.616 1372.79 Q164.445 1369.23 164.445 1362.12 Q164.445 1354.99 162.616 1351.45 Q160.811 1347.89 157.177 1347.89 M157.177 1344.18 Q162.987 1344.18 166.042 1348.79 Q169.121 1353.37 169.121 1362.12 Q169.121 1370.85 166.042 1375.45 Q162.987 1380.04 157.177 1380.04 Q151.366 1380.04 148.288 1375.45 Q145.232 1370.85 145.232 1362.12 Q145.232 1353.37 148.288 1348.79 Q151.366 1344.18 157.177 1344.18 Z" fill="#000000" fill-rule="nonzero" fill-opacity="1" /><path clip-path="url(#clip900)" d="M117.825 1168.17 L125.464 1168.17 L125.464 1141.8 L117.154 1143.47 L117.154 1139.21 L125.418 1137.54 L130.093 1137.54 L130.093 1168.17 L137.732 1168.17 L137.732 1172.1 L117.825 1172.1 L117.825 1168.17 Z" fill="#000000" fill-rule="nonzero" fill-opacity="1" /><path clip-path="url(#clip900)" d="M157.177 1140.62 Q153.566 1140.62 151.737 1144.19 Q149.931 1147.73 149.931 1154.86 Q149.931 1161.96 151.737 1165.53 Q153.566 1169.07 157.177 1169.07 Q160.811 1169.07 162.616 1165.53 Q164.445 1161.96 164.445 1154.86 Q164.445 1147.73 162.616 1144.19 Q160.811 1140.62 157.177 1140.62 M157.177 1136.92 Q162.987 1136.92 166.042 1141.52 Q169.121 1146.11 169.121 1154.86 Q169.121 1163.58 166.042 1168.19 Q162.987 1172.77 157.177 1172.77 Q151.366 1172.77 148.288 1168.19 Q145.232 1163.58 145.232 1154.86 Q145.232 1146.11 148.288 1141.52 Q151.366 1136.92 157.177 1136.92 Z" fill="#000000" fill-rule="nonzero" fill-opacity="1" /><path clip-path="url(#clip900)" d="M121.043 960.901 L137.362 960.901 L137.362 964.836 L115.418 964.836 L115.418 960.901 Q118.08 958.147 122.663 953.517 Q127.269 948.864 128.45 947.522 Q130.695 944.999 131.575 943.262 Q132.478 941.503 132.478 939.813 Q132.478 937.059 130.533 935.323 Q128.612 933.587 125.51 933.587 Q123.311 933.587 120.857 934.35 Q118.427 935.114 115.649 936.665 L115.649 931.943 Q118.473 930.809 120.927 930.23 Q123.38 929.651 125.418 929.651 Q130.788 929.651 133.982 932.337 Q137.177 935.022 137.177 939.512 Q137.177 941.642 136.367 943.563 Q135.579 945.462 133.473 948.054 Q132.894 948.725 129.792 951.943 Q126.691 955.137 121.043 960.901 Z" fill="#000000" fill-rule="nonzero" fill-opacity="1" /><path clip-path="url(#clip900)" d="M157.177 933.355 Q153.566 933.355 151.737 936.92 Q149.931 940.462 149.931 947.591 Q149.931 954.698 151.737 958.262 Q153.566 961.804 157.177 961.804 Q160.811 961.804 162.616 958.262 Q164.445 954.698 164.445 947.591 Q164.445 940.462 162.616 936.92 Q160.811 933.355 157.177 933.355 M157.177 929.651 Q162.987 929.651 166.042 934.258 Q169.121 938.841 169.121 947.591 Q169.121 956.318 166.042 960.924 Q162.987 965.508 157.177 965.508 Q151.366 965.508 148.288 960.924 Q145.232 956.318 145.232 947.591 Q145.232 938.841 148.288 934.258 Q151.366 929.651 157.177 929.651 Z" fill="#000000" fill-rule="nonzero" fill-opacity="1" /><path clip-path="url(#clip900)" d="M131.181 738.937 Q134.538 739.655 136.413 741.923 Q138.311 744.192 138.311 747.525 Q138.311 752.641 134.792 755.442 Q131.274 758.243 124.793 758.243 Q122.617 758.243 120.302 757.803 Q118.01 757.386 115.556 756.53 L115.556 752.016 Q117.501 753.15 119.816 753.729 Q122.13 754.307 124.654 754.307 Q129.052 754.307 131.343 752.571 Q133.658 750.835 133.658 747.525 Q133.658 744.469 131.505 742.757 Q129.376 741.02 125.556 741.02 L121.529 741.02 L121.529 737.178 L125.742 737.178 Q129.191 737.178 131.019 735.812 Q132.848 734.423 132.848 731.831 Q132.848 729.169 130.95 727.757 Q129.075 726.321 125.556 726.321 Q123.635 726.321 121.436 726.738 Q119.237 727.155 116.598 728.034 L116.598 723.868 Q119.26 723.127 121.575 722.757 Q123.913 722.386 125.973 722.386 Q131.297 722.386 134.399 724.817 Q137.501 727.224 137.501 731.345 Q137.501 734.215 135.857 736.206 Q134.214 738.173 131.181 738.937 Z" fill="#000000" fill-rule="nonzero" fill-opacity="1" /><path clip-path="url(#clip900)" d="M157.177 726.09 Q153.566 726.09 151.737 729.655 Q149.931 733.196 149.931 740.326 Q149.931 747.432 151.737 750.997 Q153.566 754.539 157.177 754.539 Q160.811 754.539 162.616 750.997 Q164.445 747.432 164.445 740.326 Q164.445 733.196 162.616 729.655 Q160.811 726.09 157.177 726.09 M157.177 722.386 Q162.987 722.386 166.042 726.993 Q169.121 731.576 169.121 740.326 Q169.121 749.053 166.042 753.659 Q162.987 758.243 157.177 758.243 Q151.366 758.243 148.288 753.659 Q145.232 749.053 145.232 740.326 Q145.232 731.576 148.288 726.993 Q151.366 722.386 157.177 722.386 Z" fill="#000000" fill-rule="nonzero" fill-opacity="1" /><path clip-path="url(#clip900)" d="M129.862 519.82 L118.056 538.269 L129.862 538.269 L129.862 519.82 M128.635 515.746 L134.515 515.746 L134.515 538.269 L139.445 538.269 L139.445 542.158 L134.515 542.158 L134.515 550.306 L129.862 550.306 L129.862 542.158 L114.26 542.158 L114.26 537.644 L128.635 515.746 Z" fill="#000000" fill-rule="nonzero" fill-opacity="1" /><path clip-path="url(#clip900)" d="M157.177 518.825 Q153.566 518.825 151.737 522.39 Q149.931 525.931 149.931 533.061 Q149.931 540.167 151.737 543.732 Q153.566 547.274 157.177 547.274 Q160.811 547.274 162.616 543.732 Q164.445 540.167 164.445 533.061 Q164.445 525.931 162.616 522.39 Q160.811 518.825 157.177 518.825 M157.177 515.121 Q162.987 515.121 166.042 519.728 Q169.121 524.311 169.121 533.061 Q169.121 541.788 166.042 546.394 Q162.987 550.977 157.177 550.977 Q151.366 550.977 148.288 546.394 Q145.232 541.788 145.232 533.061 Q145.232 524.311 148.288 519.728 Q151.366 515.121 157.177 515.121 Z" fill="#000000" fill-rule="nonzero" fill-opacity="1" /><path clip-path="url(#clip900)" d="M117.061 308.481 L135.417 308.481 L135.417 312.416 L121.343 312.416 L121.343 320.888 Q122.362 320.541 123.38 320.379 Q124.399 320.194 125.418 320.194 Q131.205 320.194 134.584 323.365 Q137.964 326.536 137.964 331.953 Q137.964 337.532 134.492 340.633 Q131.019 343.712 124.7 343.712 Q122.524 343.712 120.255 343.342 Q118.01 342.971 115.603 342.231 L115.603 337.532 Q117.686 338.666 119.908 339.221 Q122.13 339.777 124.607 339.777 Q128.612 339.777 130.95 337.671 Q133.288 335.564 133.288 331.953 Q133.288 328.342 130.95 326.235 Q128.612 324.129 124.607 324.129 Q122.732 324.129 120.857 324.546 Q119.006 324.962 117.061 325.842 L117.061 308.481 Z" fill="#000000" fill-rule="nonzero" fill-opacity="1" /><path clip-path="url(#clip900)" d="M157.177 311.56 Q153.566 311.56 151.737 315.124 Q149.931 318.666 149.931 325.796 Q149.931 332.902 151.737 336.467 Q153.566 340.008 157.177 340.008 Q160.811 340.008 162.616 336.467 Q164.445 332.902 164.445 325.796 Q164.445 318.666 162.616 315.124 Q160.811 311.56 157.177 311.56 M157.177 307.856 Q162.987 307.856 166.042 312.462 Q169.121 317.046 169.121 325.796 Q169.121 334.522 166.042 339.129 Q162.987 343.712 157.177 343.712 Q151.366 343.712 148.288 339.129 Q145.232 334.522 145.232 325.796 Q145.232 317.046 148.288 312.462 Q151.366 307.856 157.177 307.856 Z" fill="#000000" fill-rule="nonzero" fill-opacity="1" /><path clip-path="url(#clip900)" d="M127.593 116.632 Q124.445 116.632 122.593 118.785 Q120.765 120.938 120.765 124.688 Q120.765 128.415 122.593 130.59 Q124.445 132.743 127.593 132.743 Q130.742 132.743 132.57 130.59 Q134.422 128.415 134.422 124.688 Q134.422 120.938 132.57 118.785 Q130.742 116.632 127.593 116.632 M136.876 101.98 L136.876 106.239 Q135.117 105.405 133.311 104.966 Q131.529 104.526 129.769 104.526 Q125.14 104.526 122.686 107.651 Q120.255 110.776 119.908 117.095 Q121.274 115.081 123.334 114.017 Q125.394 112.929 127.871 112.929 Q133.08 112.929 136.089 116.1 Q139.121 119.248 139.121 124.688 Q139.121 130.012 135.973 133.229 Q132.825 136.447 127.593 136.447 Q121.598 136.447 118.427 131.864 Q115.256 127.257 115.256 118.53 Q115.256 110.336 119.144 105.475 Q123.033 100.591 129.584 100.591 Q131.343 100.591 133.126 100.938 Q134.931 101.285 136.876 101.98 Z" fill="#000000" fill-rule="nonzero" fill-opacity="1" /><path clip-path="url(#clip900)" d="M157.177 104.294 Q153.566 104.294 151.737 107.859 Q149.931 111.401 149.931 118.53 Q149.931 125.637 151.737 129.202 Q153.566 132.743 157.177 132.743 Q160.811 132.743 162.616 129.202 Q164.445 125.637 164.445 118.53 Q164.445 111.401 162.616 107.859 Q160.811 104.294 157.177 104.294 M157.177 100.591 Q162.987 100.591 166.042 105.197 Q169.121 109.78 169.121 118.53 Q169.121 127.257 166.042 131.864 Q162.987 136.447 157.177 136.447 Q151.366 136.447 148.288 131.864 Q145.232 127.257 145.232 118.53 Q145.232 109.78 148.288 105.197 Q151.366 100.591 157.177 100.591 Z" fill="#000000" fill-rule="nonzero" fill-opacity="1" /><path clip-path="url(#clip900)" d="M41.7242 898.17 Q42.4244 896.102 44.7161 894.16 Q47.0077 892.187 51.0181 890.213 L64.0042 883.688 L64.0042 890.595 L51.8138 896.674 Q47.0395 899.03 45.48 901.258 Q43.9204 903.454 43.9204 907.273 L43.9204 914.276 L64.0042 914.276 L64.0042 920.705 L16.4842 920.705 L16.4842 906.191 Q16.4842 898.043 19.8898 894.033 Q23.2955 890.022 30.1704 890.022 Q34.6582 890.022 37.6183 892.123 Q40.5784 894.192 41.7242 898.17 M21.7677 914.276 L38.6368 914.276 L38.6368 906.191 Q38.6368 901.544 36.5043 899.189 Q34.34 896.802 30.1704 896.802 Q26.0009 896.802 23.9002 899.189 Q21.7677 901.544 21.7677 906.191 L21.7677 914.276 Z" fill="#000000" fill-rule="nonzero" fill-opacity="1" /><path clip-path="url(#clip900)" d="M49.9359 879.201 L28.3562 879.201 L28.3562 873.344 L49.7131 873.344 Q54.7739 873.344 57.3202 871.371 Q59.8346 869.397 59.8346 865.451 Q59.8346 860.708 56.8109 857.971 Q53.7872 855.202 48.5673 855.202 L28.3562 855.202 L28.3562 849.345 L64.0042 849.345 L64.0042 855.202 L58.5296 855.202 Q61.7762 857.334 63.3676 860.167 Q64.9272 862.968 64.9272 866.692 Q64.9272 872.835 61.1078 876.018 Q57.2883 879.201 49.9359 879.201 M27.4968 864.464 L27.4968 864.464 Z" fill="#000000" fill-rule="nonzero" fill-opacity="1" /><path clip-path="url(#clip900)" d="M42.4881 807.65 L64.0042 807.65 L64.0042 813.506 L42.679 813.506 Q37.6183 813.506 35.1038 815.48 Q32.5894 817.453 32.5894 821.4 Q32.5894 826.142 35.6131 828.88 Q38.6368 831.617 43.8567 831.617 L64.0042 831.617 L64.0042 837.505 L28.3562 837.505 L28.3562 831.617 L33.8944 831.617 Q30.6797 829.516 29.0883 826.683 Q27.4968 823.819 27.4968 820.095 Q27.4968 813.952 31.3163 810.801 Q35.1038 807.65 42.4881 807.65 Z" fill="#000000" fill-rule="nonzero" fill-opacity="1" /><path clip-path="url(#clip900)" d="M18.2347 790.176 L28.3562 790.176 L28.3562 778.113 L32.9077 778.113 L32.9077 790.176 L52.2594 790.176 Q56.6199 790.176 57.8613 788.998 Q59.1026 787.789 59.1026 784.129 L59.1026 778.113 L64.0042 778.113 L64.0042 784.129 Q64.0042 790.908 61.4897 793.486 Q58.9434 796.064 52.2594 796.064 L32.9077 796.064 L32.9077 800.361 L28.3562 800.361 L28.3562 796.064 L18.2347 796.064 L18.2347 790.176 Z" fill="#000000" fill-rule="nonzero" fill-opacity="1" /><path clip-path="url(#clip900)" d="M28.3562 770.411 L28.3562 764.554 L64.0042 764.554 L64.0042 770.411 L28.3562 770.411 M14.479 770.411 L14.479 764.554 L21.895 764.554 L21.895 770.411 L14.479 770.411 Z" fill="#000000" fill-rule="nonzero" fill-opacity="1" /><path clip-path="url(#clip900)" d="M35.1993 724.546 Q31.2526 722.35 29.3747 719.294 Q27.4968 716.238 27.4968 712.101 Q27.4968 706.531 31.4117 703.507 Q35.2948 700.483 42.4881 700.483 L64.0042 700.483 L64.0042 706.372 L42.679 706.372 Q37.5546 706.372 35.072 708.186 Q32.5894 710 32.5894 713.724 Q32.5894 718.275 35.6131 720.917 Q38.6368 723.559 43.8567 723.559 L64.0042 723.559 L64.0042 729.447 L42.679 729.447 Q37.5228 729.447 35.072 731.262 Q32.5894 733.076 32.5894 736.863 Q32.5894 741.351 35.6449 743.993 Q38.6686 746.635 43.8567 746.635 L64.0042 746.635 L64.0042 752.523 L28.3562 752.523 L28.3562 746.635 L33.8944 746.635 Q30.616 744.63 29.0564 741.829 Q27.4968 739.028 27.4968 735.176 Q27.4968 731.293 29.4702 728.588 Q31.4436 725.851 35.1993 724.546 Z" fill="#000000" fill-rule="nonzero" fill-opacity="1" /><path clip-path="url(#clip900)" d="M44.7161 658.311 L47.5806 658.311 L47.5806 685.237 Q53.6281 684.856 56.8109 681.609 Q59.9619 678.331 59.9619 672.506 Q59.9619 669.132 59.1344 665.981 Q58.3069 662.798 56.6518 659.679 L62.1899 659.679 Q63.5267 662.83 64.227 666.14 Q64.9272 669.451 64.9272 672.856 Q64.9272 681.386 59.9619 686.383 Q54.9967 691.349 46.5303 691.349 Q37.7774 691.349 32.6531 686.638 Q27.4968 681.895 27.4968 673.875 Q27.4968 666.681 32.1438 662.512 Q36.7589 658.311 44.7161 658.311 M42.9973 664.167 Q38.1912 664.231 35.3266 666.872 Q32.4621 669.482 32.4621 673.811 Q32.4621 678.713 35.2312 681.673 Q38.0002 684.601 43.0292 685.046 L42.9973 664.167 Z" fill="#000000" fill-rule="nonzero" fill-opacity="1" /><path clip-path="url(#clip900)" d="M14.5426 613.91 Q21.8632 618.175 29.0246 620.244 Q36.186 622.312 43.5384 622.312 Q50.8908 622.312 58.1159 620.244 Q65.3091 618.143 72.5979 613.91 L72.5979 619.002 Q65.1182 623.777 57.8931 626.164 Q50.668 628.519 43.5384 628.519 Q36.4406 628.519 29.2474 626.164 Q22.0542 623.808 14.5426 619.002 L14.5426 613.91 Z" fill="#000000" fill-rule="nonzero" fill-opacity="1" /><path clip-path="url(#clip900)" d="M43.0928 561.297 Q43.0928 564.066 45.4481 565.658 Q47.8034 567.217 52.0048 567.217 Q56.1425 567.217 58.5296 565.658 Q60.885 564.066 60.885 561.297 Q60.885 558.592 58.5296 557.032 Q56.1425 555.441 52.0048 555.441 Q47.8353 555.441 45.48 557.032 Q43.0928 558.592 43.0928 561.297 M39.0506 561.297 Q39.0506 556.268 42.5517 553.308 Q46.0529 550.348 52.0048 550.348 Q57.9567 550.348 61.4579 553.34 Q64.9272 556.3 64.9272 561.297 Q64.9272 566.39 61.4579 569.35 Q57.9567 572.31 52.0048 572.31 Q46.021 572.31 42.5517 569.35 Q39.0506 566.358 39.0506 561.297 M19.667 594.144 Q19.667 596.881 22.0542 598.473 Q24.4095 600.032 28.5472 600.032 Q32.7485 600.032 35.1038 598.473 Q37.4592 596.913 37.4592 594.144 Q37.4592 591.375 35.1038 589.816 Q32.7485 588.224 28.5472 588.224 Q24.4413 588.224 22.0542 589.816 Q19.667 591.407 19.667 594.144 M15.6248 565.403 L15.6248 560.31 L64.9272 590.038 L64.9272 595.131 L15.6248 565.403 M15.6248 594.144 Q15.6248 589.115 19.1259 586.123 Q22.5952 583.132 28.5472 583.132 Q34.5628 583.132 38.0321 586.123 Q41.5014 589.083 41.5014 594.144 Q41.5014 599.205 38.0321 602.165 Q34.5309 605.093 28.5472 605.093 Q22.6271 605.093 19.1259 602.133 Q15.6248 599.173 15.6248 594.144 Z" fill="#000000" fill-rule="nonzero" fill-opacity="1" /><path clip-path="url(#clip900)" d="M14.5426 541.532 L14.5426 536.439 Q22.0542 531.665 29.2474 529.309 Q36.4406 526.922 43.5384 526.922 Q50.668 526.922 57.8931 529.309 Q65.1182 531.665 72.5979 536.439 L72.5979 541.532 Q65.3091 537.298 58.1159 535.23 Q50.8908 533.129 43.5384 533.129 Q36.186 533.129 29.0246 535.23 Q21.8632 537.298 14.5426 541.532 Z" fill="#000000" fill-rule="nonzero" fill-opacity="1" /><path clip-path="url(#clip902)" d="M342.359 1246.02 L304.131 1246.02 L380.586 1246.02 L342.359 1246.02 L342.359 1196.53 L342.359 1246.02  Z" fill="#009af9" fill-rule="evenodd" fill-opacity="1"/>
<polyline clip-path="url(#clip902)" style="stroke:#000000; stroke-linecap:round; stroke-linejoin:round; stroke-width:4; stroke-opacity:1; fill:none" points="342.359,1246.02 304.131,1246.02 380.586,1246.02 342.359,1246.02 342.359,1196.53 342.359,1246.02 "/>
<path clip-path="url(#clip902)" d="M418.814 1196.53 L418.814 1168.71 L265.903 1168.71 L265.903 1196.53 L418.814 1196.53 L418.814 1168.71 L418.814 1196.53  Z" fill="#009af9" fill-rule="evenodd" fill-opacity="1"/>
<polyline clip-path="url(#clip902)" style="stroke:#000000; stroke-linecap:round; stroke-linejoin:round; stroke-width:4; stroke-opacity:1; fill:none" points="418.814,1196.53 418.814,1168.71 265.903,1168.71 265.903,1196.53 418.814,1196.53 418.814,1168.71 418.814,1196.53 "/>
<path clip-path="url(#clip902)" d="M418.814 1156.32 L265.903 1156.32 L265.903 1168.71 L418.814 1168.71 L418.814 1156.32 L342.359 1156.32 L418.814 1156.32  Z" fill="#009af9" fill-rule="evenodd" fill-opacity="1"/>
<polyline clip-path="url(#clip902)" style="stroke:#000000; stroke-linecap:round; stroke-linejoin:round; stroke-width:4; stroke-opacity:1; fill:none" points="418.814,1156.32 265.903,1156.32 265.903,1168.71 418.814,1168.71 418.814,1156.32 342.359,1156.32 418.814,1156.32 "/>
<path clip-path="url(#clip902)" d="M342.359 1135.34 L304.131 1135.34 L380.586 1135.34 L342.359 1135.34 L342.359 1156.32 L342.359 1135.34  Z" fill="#009af9" fill-rule="evenodd" fill-opacity="1"/>
<polyline clip-path="url(#clip902)" style="stroke:#000000; stroke-linecap:round; stroke-linejoin:round; stroke-width:4; stroke-opacity:1; fill:none" points="342.359,1135.34 304.131,1135.34 380.586,1135.34 342.359,1135.34 342.359,1156.32 342.359,1135.34 "/>
<circle clip-path="url(#clip902)" cx="342.359" cy="1082.69" r="14.4" fill="#009af9" fill-rule="evenodd" fill-opacity="1" stroke="#000000" stroke-opacity="1" stroke-width="3.2"/>
<circle clip-path="url(#clip902)" cx="342.359" cy="1259.91" r="14.4" fill="#009af9" fill-rule="evenodd" fill-opacity="1" stroke="#000000" stroke-opacity="1" stroke-width="3.2"/>
<polyline clip-path="url(#clip902)" style="stroke:#009af9; stroke-linecap:round; stroke-linejoin:round; stroke-width:0; stroke-opacity:1; fill:none" points="342.359,1246.02 304.131,1246.02 380.586,1246.02 342.359,1246.02 342.359,1196.53 "/>
<polyline clip-path="url(#clip902)" style="stroke:#009af9; stroke-linecap:round; stroke-linejoin:round; stroke-width:0; stroke-opacity:1; fill:none" points="418.814,1196.53 418.814,1168.71 265.903,1168.71 265.903,1196.53 418.814,1196.53 418.814,1168.71 "/>
<polyline clip-path="url(#clip902)" style="stroke:#009af9; stroke-linecap:round; stroke-linejoin:round; stroke-width:0; stroke-opacity:1; fill:none" points="418.814,1156.32 265.903,1156.32 265.903,1168.71 418.814,1168.71 418.814,1156.32 342.359,1156.32 "/>
<polyline clip-path="url(#clip902)" style="stroke:#009af9; stroke-linecap:round; stroke-linejoin:round; stroke-width:0; stroke-opacity:1; fill:none" points="342.359,1135.34 304.131,1135.34 380.586,1135.34 342.359,1135.34 342.359,1156.32 "/>
<path clip-path="url(#clip902)" d="M609.953 1361.47 L571.725 1361.47 L648.181 1361.47 L609.953 1361.47 L609.953 1361.47 L609.953 1361.47  Z" fill="#e26f46" fill-rule="evenodd" fill-opacity="1"/>
<polyline clip-path="url(#clip902)" style="stroke:#000000; stroke-linecap:round; stroke-linejoin:round; stroke-width:4; stroke-opacity:1; fill:none" points="609.953,1361.47 571.725,1361.47 648.181,1361.47 609.953,1361.47 "/>
<path clip-path="url(#clip902)" d="M686.408 1361.47 L686.408 1361.47 L533.497 1361.47 L533.497 1361.47 L686.408 1361.47 L686.408 1361.47 L686.408 1361.47  Z" fill="#e26f46" fill-rule="evenodd" fill-opacity="1"/>
<polyline clip-path="url(#clip902)" style="stroke:#000000; stroke-linecap:round; stroke-linejoin:round; stroke-width:4; stroke-opacity:1; fill:none" points="686.408,1361.47 686.408,1361.47 533.497,1361.47 686.408,1361.47 "/>
<path clip-path="url(#clip902)" d="M686.408 1361.26 L533.497 1361.26 L533.497 1361.47 L686.408 1361.47 L686.408 1361.26 L609.953 1361.26 L686.408 1361.26  Z" fill="#e26f46" fill-rule="evenodd" fill-opacity="1"/>
<polyline clip-path="url(#clip902)" style="stroke:#000000; stroke-linecap:round; stroke-linejoin:round; stroke-width:4; stroke-opacity:1; fill:none" points="686.408,1361.26 533.497,1361.26 533.497,1361.47 686.408,1361.47 686.408,1361.26 609.953,1361.26 686.408,1361.26 "/>
<path clip-path="url(#clip902)" d="M609.953 1361.26 L571.725 1361.26 L648.181 1361.26 L609.953 1361.26 L609.953 1361.26 L609.953 1361.26  Z" fill="#e26f46" fill-rule="evenodd" fill-opacity="1"/>
<polyline clip-path="url(#clip902)" style="stroke:#000000; stroke-linecap:round; stroke-linejoin:round; stroke-width:4; stroke-opacity:1; fill:none" points="609.953,1361.26 571.725,1361.26 648.181,1361.26 609.953,1361.26 "/>
<circle clip-path="url(#clip902)" cx="609.953" cy="1360.84" r="14.4" fill="#e26f46" fill-rule="evenodd" fill-opacity="1" stroke="#000000" stroke-opacity="1" stroke-width="3.2"/>
<circle clip-path="url(#clip902)" cx="609.953" cy="1360.84" r="14.4" fill="#e26f46" fill-rule="evenodd" fill-opacity="1" stroke="#000000" stroke-opacity="1" stroke-width="3.2"/>
<polyline clip-path="url(#clip902)" style="stroke:#e26f46; stroke-linecap:round; stroke-linejoin:round; stroke-width:0; stroke-opacity:1; fill:none" points="609.953,1361.47 571.725,1361.47 648.181,1361.47 609.953,1361.47 "/>
<polyline clip-path="url(#clip902)" style="stroke:#e26f46; stroke-linecap:round; stroke-linejoin:round; stroke-width:0; stroke-opacity:1; fill:none" points="686.408,1361.47 686.408,1361.47 533.497,1361.47 686.408,1361.47 "/>
<polyline clip-path="url(#clip902)" style="stroke:#e26f46; stroke-linecap:round; stroke-linejoin:round; stroke-width:0; stroke-opacity:1; fill:none" points="686.408,1361.26 533.497,1361.26 533.497,1361.47 686.408,1361.47 686.408,1361.26 609.953,1361.26 "/>
<polyline clip-path="url(#clip902)" style="stroke:#e26f46; stroke-linecap:round; stroke-linejoin:round; stroke-width:0; stroke-opacity:1; fill:none" points="609.953,1361.26 571.725,1361.26 648.181,1361.26 609.953,1361.26 "/>
<path clip-path="url(#clip902)" d="M877.547 1361.67 L839.319 1361.67 L915.775 1361.67 L877.547 1361.67 L877.547 1361.67 L877.547 1361.67  Z" fill="#3da44d" fill-rule="evenodd" fill-opacity="1"/>
<polyline clip-path="url(#clip902)" style="stroke:#000000; stroke-linecap:round; stroke-linejoin:round; stroke-width:4; stroke-opacity:1; fill:none" points="877.547,1361.67 839.319,1361.67 915.775,1361.67 877.547,1361.67 "/>
<path clip-path="url(#clip902)" d="M954.003 1361.67 L954.003 1361.57 L801.092 1361.57 L801.092 1361.67 L954.003 1361.67 L954.003 1361.57 L954.003 1361.67  Z" fill="#3da44d" fill-rule="evenodd" fill-opacity="1"/>
<polyline clip-path="url(#clip902)" style="stroke:#000000; stroke-linecap:round; stroke-linejoin:round; stroke-width:4; stroke-opacity:1; fill:none" points="954.003,1361.67 954.003,1361.57 801.092,1361.57 801.092,1361.67 954.003,1361.67 954.003,1361.57 954.003,1361.67 "/>
<path clip-path="url(#clip902)" d="M954.003 1361.47 L801.092 1361.47 L801.092 1361.57 L954.003 1361.57 L954.003 1361.47 L877.547 1361.47 L954.003 1361.47  Z" fill="#3da44d" fill-rule="evenodd" fill-opacity="1"/>
<polyline clip-path="url(#clip902)" style="stroke:#000000; stroke-linecap:round; stroke-linejoin:round; stroke-width:4; stroke-opacity:1; fill:none" points="954.003,1361.47 801.092,1361.47 801.092,1361.57 954.003,1361.57 954.003,1361.47 877.547,1361.47 954.003,1361.47 "/>
<path clip-path="url(#clip902)" d="M877.547 1361.26 L839.319 1361.26 L915.775 1361.26 L877.547 1361.26 L877.547 1361.47 L877.547 1361.26  Z" fill="#3da44d" fill-rule="evenodd" fill-opacity="1"/>
<polyline clip-path="url(#clip902)" style="stroke:#000000; stroke-linecap:round; stroke-linejoin:round; stroke-width:4; stroke-opacity:1; fill:none" points="877.547,1361.26 839.319,1361.26 915.775,1361.26 877.547,1361.26 877.547,1361.47 877.547,1361.26 "/>
<circle clip-path="url(#clip902)" cx="877.547" cy="1361.05" r="14.4" fill="#3da44d" fill-rule="evenodd" fill-opacity="1" stroke="#000000" stroke-opacity="1" stroke-width="3.2"/>
<circle clip-path="url(#clip902)" cx="877.547" cy="1360.84" r="14.4" fill="#3da44d" fill-rule="evenodd" fill-opacity="1" stroke="#000000" stroke-opacity="1" stroke-width="3.2"/>
<polyline clip-path="url(#clip902)" style="stroke:#3da44d; stroke-linecap:round; stroke-linejoin:round; stroke-width:0; stroke-opacity:1; fill:none" points="877.547,1361.67 839.319,1361.67 915.775,1361.67 877.547,1361.67 "/>
<polyline clip-path="url(#clip902)" style="stroke:#3da44d; stroke-linecap:round; stroke-linejoin:round; stroke-width:0; stroke-opacity:1; fill:none" points="954.003,1361.67 954.003,1361.57 801.092,1361.57 801.092,1361.67 954.003,1361.67 954.003,1361.57 "/>
<polyline clip-path="url(#clip902)" style="stroke:#3da44d; stroke-linecap:round; stroke-linejoin:round; stroke-width:0; stroke-opacity:1; fill:none" points="954.003,1361.47 801.092,1361.47 801.092,1361.57 954.003,1361.57 954.003,1361.47 877.547,1361.47 "/>
<polyline clip-path="url(#clip902)" style="stroke:#3da44d; stroke-linecap:round; stroke-linejoin:round; stroke-width:0; stroke-opacity:1; fill:none" points="877.547,1361.26 839.319,1361.26 915.775,1361.26 877.547,1361.26 877.547,1361.47 "/>
<path clip-path="url(#clip902)" d="M1145.14 1361.88 L1106.91 1361.88 L1183.37 1361.88 L1145.14 1361.88 L1145.14 1361.88 L1145.14 1361.88  Z" fill="#c271d2" fill-rule="evenodd" fill-opacity="1"/>
<polyline clip-path="url(#clip902)" style="stroke:#000000; stroke-linecap:round; stroke-linejoin:round; stroke-width:4; stroke-opacity:1; fill:none" points="1145.14,1361.88 1106.91,1361.88 1183.37,1361.88 1145.14,1361.88 "/>
<path clip-path="url(#clip902)" d="M1221.6 1361.88 L1221.6 1361.88 L1068.69 1361.88 L1068.69 1361.88 L1221.6 1361.88 L1221.6 1361.88 L1221.6 1361.88  Z" fill="#c271d2" fill-rule="evenodd" fill-opacity="1"/>
<polyline clip-path="url(#clip902)" style="stroke:#000000; stroke-linecap:round; stroke-linejoin:round; stroke-width:4; stroke-opacity:1; fill:none" points="1221.6,1361.88 1221.6,1361.88 1068.69,1361.88 1221.6,1361.88 "/>
<path clip-path="url(#clip902)" d="M1221.6 1361.88 L1068.69 1361.88 L1068.69 1361.88 L1221.6 1361.88 L1221.6 1361.88 L1145.14 1361.88 L1221.6 1361.88  Z" fill="#c271d2" fill-rule="evenodd" fill-opacity="1"/>
<polyline clip-path="url(#clip902)" style="stroke:#000000; stroke-linecap:round; stroke-linejoin:round; stroke-width:4; stroke-opacity:1; fill:none" points="1221.6,1361.88 1068.69,1361.88 1221.6,1361.88 1145.14,1361.88 1221.6,1361.88 "/>
<path clip-path="url(#clip902)" d="M1145.14 1361.88 L1106.91 1361.88 L1183.37 1361.88 L1145.14 1361.88 L1145.14 1361.88 L1145.14 1361.88  Z" fill="#c271d2" fill-rule="evenodd" fill-opacity="1"/>
<polyline clip-path="url(#clip902)" style="stroke:#000000; stroke-linecap:round; stroke-linejoin:round; stroke-width:4; stroke-opacity:1; fill:none" points="1145.14,1361.88 1106.91,1361.88 1183.37,1361.88 1145.14,1361.88 "/>
<polyline clip-path="url(#clip902)" style="stroke:#c271d2; stroke-linecap:round; stroke-linejoin:round; stroke-width:0; stroke-opacity:1; fill:none" points="1145.14,1361.88 1106.91,1361.88 1183.37,1361.88 1145.14,1361.88 "/>
<polyline clip-path="url(#clip902)" style="stroke:#c271d2; stroke-linecap:round; stroke-linejoin:round; stroke-width:0; stroke-opacity:1; fill:none" points="1221.6,1361.88 1221.6,1361.88 1068.69,1361.88 1221.6,1361.88 "/>
<polyline clip-path="url(#clip902)" style="stroke:#c271d2; stroke-linecap:round; stroke-linejoin:round; stroke-width:0; stroke-opacity:1; fill:none" points="1221.6,1361.88 1068.69,1361.88 1221.6,1361.88 1145.14,1361.88 "/>
<polyline clip-path="url(#clip902)" style="stroke:#c271d2; stroke-linecap:round; stroke-linejoin:round; stroke-width:0; stroke-opacity:1; fill:none" points="1145.14,1361.88 1106.91,1361.88 1183.37,1361.88 1145.14,1361.88 "/>
<path clip-path="url(#clip902)" d="M1412.74 1362.09 L1374.51 1362.09 L1450.96 1362.09 L1412.74 1362.09 L1412.74 1362.09 L1412.74 1362.09  Z" fill="#ac8d18" fill-rule="evenodd" fill-opacity="1"/>
<polyline clip-path="url(#clip902)" style="stroke:#000000; stroke-linecap:round; stroke-linejoin:round; stroke-width:4; stroke-opacity:1; fill:none" points="1412.74,1362.09 1374.51,1362.09 1450.96,1362.09 1412.74,1362.09 "/>
<path clip-path="url(#clip902)" d="M1489.19 1362.09 L1489.19 1360.33 L1336.28 1360.33 L1336.28 1362.09 L1489.19 1362.09 L1489.19 1360.33 L1489.19 1362.09  Z" fill="#ac8d18" fill-rule="evenodd" fill-opacity="1"/>
<polyline clip-path="url(#clip902)" style="stroke:#000000; stroke-linecap:round; stroke-linejoin:round; stroke-width:4; stroke-opacity:1; fill:none" points="1489.19,1362.09 1489.19,1360.33 1336.28,1360.33 1336.28,1362.09 1489.19,1362.09 1489.19,1360.33 1489.19,1362.09 "/>
<path clip-path="url(#clip902)" d="M1489.19 1356.59 L1336.28 1356.59 L1336.28 1360.33 L1489.19 1360.33 L1489.19 1356.59 L1412.74 1356.59 L1489.19 1356.59  Z" fill="#ac8d18" fill-rule="evenodd" fill-opacity="1"/>
<polyline clip-path="url(#clip902)" style="stroke:#000000; stroke-linecap:round; stroke-linejoin:round; stroke-width:4; stroke-opacity:1; fill:none" points="1489.19,1356.59 1336.28,1356.59 1336.28,1360.33 1489.19,1360.33 1489.19,1356.59 1412.74,1356.59 1489.19,1356.59 "/>
<path clip-path="url(#clip902)" d="M1412.74 1350.48 L1374.51 1350.48 L1450.96 1350.48 L1412.74 1350.48 L1412.74 1356.59 L1412.74 1350.48  Z" fill="#ac8d18" fill-rule="evenodd" fill-opacity="1"/>
<polyline clip-path="url(#clip902)" style="stroke:#000000; stroke-linecap:round; stroke-linejoin:round; stroke-width:4; stroke-opacity:1; fill:none" points="1412.74,1350.48 1374.51,1350.48 1450.96,1350.48 1412.74,1350.48 1412.74,1356.59 1412.74,1350.48 "/>
<polyline clip-path="url(#clip902)" style="stroke:#ac8d18; stroke-linecap:round; stroke-linejoin:round; stroke-width:0; stroke-opacity:1; fill:none" points="1412.74,1362.09 1374.51,1362.09 1450.96,1362.09 1412.74,1362.09 "/>
<polyline clip-path="url(#clip902)" style="stroke:#ac8d18; stroke-linecap:round; stroke-linejoin:round; stroke-width:0; stroke-opacity:1; fill:none" points="1489.19,1362.09 1489.19,1360.33 1336.28,1360.33 1336.28,1362.09 1489.19,1362.09 1489.19,1360.33 "/>
<polyline clip-path="url(#clip902)" style="stroke:#ac8d18; stroke-linecap:round; stroke-linejoin:round; stroke-width:0; stroke-opacity:1; fill:none" points="1489.19,1356.59 1336.28,1356.59 1336.28,1360.33 1489.19,1360.33 1489.19,1356.59 1412.74,1356.59 "/>
<polyline clip-path="url(#clip902)" style="stroke:#ac8d18; stroke-linecap:round; stroke-linejoin:round; stroke-width:0; stroke-opacity:1; fill:none" points="1412.74,1350.48 1374.51,1350.48 1450.96,1350.48 1412.74,1350.48 1412.74,1356.59 "/>
<path clip-path="url(#clip902)" d="M1680.33 723.917 L1642.1 723.917 L1718.56 723.917 L1680.33 723.917 L1680.33 695.833 L1680.33 723.917  Z" fill="#00a9ad" fill-rule="evenodd" fill-opacity="1"/>
<polyline clip-path="url(#clip902)" style="stroke:#000000; stroke-linecap:round; stroke-linejoin:round; stroke-width:4; stroke-opacity:1; fill:none" points="1680.33,723.917 1642.1,723.917 1718.56,723.917 1680.33,723.917 1680.33,695.833 1680.33,723.917 "/>
<path clip-path="url(#clip902)" d="M1756.79 695.833 L1756.79 690.444 L1603.87 690.444 L1603.87 695.833 L1756.79 695.833 L1756.79 690.444 L1756.79 695.833  Z" fill="#00a9ad" fill-rule="evenodd" fill-opacity="1"/>
<polyline clip-path="url(#clip902)" style="stroke:#000000; stroke-linecap:round; stroke-linejoin:round; stroke-width:4; stroke-opacity:1; fill:none" points="1756.79,695.833 1756.79,690.444 1603.87,690.444 1603.87,695.833 1756.79,695.833 1756.79,690.444 1756.79,695.833 "/>
<path clip-path="url(#clip902)" d="M1756.79 669.614 L1603.87 669.614 L1603.87 690.444 L1756.79 690.444 L1756.79 669.614 L1680.33 669.614 L1756.79 669.614  Z" fill="#00a9ad" fill-rule="evenodd" fill-opacity="1"/>
<polyline clip-path="url(#clip902)" style="stroke:#000000; stroke-linecap:round; stroke-linejoin:round; stroke-width:4; stroke-opacity:1; fill:none" points="1756.79,669.614 1603.87,669.614 1603.87,690.444 1756.79,690.444 1756.79,669.614 1680.33,669.614 1756.79,669.614 "/>
<path clip-path="url(#clip902)" d="M1680.33 661.53 L1642.1 661.53 L1718.56 661.53 L1680.33 661.53 L1680.33 669.614 L1680.33 661.53  Z" fill="#00a9ad" fill-rule="evenodd" fill-opacity="1"/>
<polyline clip-path="url(#clip902)" style="stroke:#000000; stroke-linecap:round; stroke-linejoin:round; stroke-width:4; stroke-opacity:1; fill:none" points="1680.33,661.53 1642.1,661.53 1718.56,661.53 1680.33,661.53 1680.33,669.614 1680.33,661.53 "/>
<polyline clip-path="url(#clip902)" style="stroke:#00a9ad; stroke-linecap:round; stroke-linejoin:round; stroke-width:0; stroke-opacity:1; fill:none" points="1680.33,723.917 1642.1,723.917 1718.56,723.917 1680.33,723.917 1680.33,695.833 "/>
<polyline clip-path="url(#clip902)" style="stroke:#00a9ad; stroke-linecap:round; stroke-linejoin:round; stroke-width:0; stroke-opacity:1; fill:none" points="1756.79,695.833 1756.79,690.444 1603.87,690.444 1603.87,695.833 1756.79,695.833 1756.79,690.444 "/>
<polyline clip-path="url(#clip902)" style="stroke:#00a9ad; stroke-linecap:round; stroke-linejoin:round; stroke-width:0; stroke-opacity:1; fill:none" points="1756.79,669.614 1603.87,669.614 1603.87,690.444 1756.79,690.444 1756.79,669.614 1680.33,669.614 "/>
<polyline clip-path="url(#clip902)" style="stroke:#00a9ad; stroke-linecap:round; stroke-linejoin:round; stroke-width:0; stroke-opacity:1; fill:none" points="1680.33,661.53 1642.1,661.53 1718.56,661.53 1680.33,661.53 1680.33,669.614 "/>
<path clip-path="url(#clip902)" d="M1947.92 1362.09 L1909.7 1362.09 L1986.15 1362.09 L1947.92 1362.09 L1947.92 1362.09 L1947.92 1362.09  Z" fill="#ed5d92" fill-rule="evenodd" fill-opacity="1"/>
<polyline clip-path="url(#clip902)" style="stroke:#000000; stroke-linecap:round; stroke-linejoin:round; stroke-width:4; stroke-opacity:1; fill:none" points="1947.92,1362.09 1909.7,1362.09 1986.15,1362.09 1947.92,1362.09 "/>
<path clip-path="url(#clip902)" d="M2024.38 1362.09 L2024.38 1362.09 L1871.47 1362.09 L1871.47 1362.09 L2024.38 1362.09 L2024.38 1362.09 L2024.38 1362.09  Z" fill="#ed5d92" fill-rule="evenodd" fill-opacity="1"/>
<polyline clip-path="url(#clip902)" style="stroke:#000000; stroke-linecap:round; stroke-linejoin:round; stroke-width:4; stroke-opacity:1; fill:none" points="2024.38,1362.09 2024.38,1362.09 1871.47,1362.09 2024.38,1362.09 "/>
<path clip-path="url(#clip902)" d="M2024.38 1362.09 L1871.47 1362.09 L1871.47 1362.09 L2024.38 1362.09 L2024.38 1362.09 L1947.92 1362.09 L2024.38 1362.09  Z" fill="#ed5d92" fill-rule="evenodd" fill-opacity="1"/>
<polyline clip-path="url(#clip902)" style="stroke:#000000; stroke-linecap:round; stroke-linejoin:round; stroke-width:4; stroke-opacity:1; fill:none" points="2024.38,1362.09 1871.47,1362.09 2024.38,1362.09 1947.92,1362.09 2024.38,1362.09 "/>
<path clip-path="url(#clip902)" d="M1947.92 1362.09 L1909.7 1362.09 L1986.15 1362.09 L1947.92 1362.09 L1947.92 1362.09 L1947.92 1362.09  Z" fill="#ed5d92" fill-rule="evenodd" fill-opacity="1"/>
<polyline clip-path="url(#clip902)" style="stroke:#000000; stroke-linecap:round; stroke-linejoin:round; stroke-width:4; stroke-opacity:1; fill:none" points="1947.92,1362.09 1909.7,1362.09 1986.15,1362.09 1947.92,1362.09 "/>
<circle clip-path="url(#clip902)" cx="1947.92" cy="1361.26" r="14.4" fill="#ed5d92" fill-rule="evenodd" fill-opacity="1" stroke="#000000" stroke-opacity="1" stroke-width="3.2"/>
<circle clip-path="url(#clip902)" cx="1947.92" cy="1360.64" r="14.4" fill="#ed5d92" fill-rule="evenodd" fill-opacity="1" stroke="#000000" stroke-opacity="1" stroke-width="3.2"/>
<circle clip-path="url(#clip902)" cx="1947.92" cy="1361.26" r="14.4" fill="#ed5d92" fill-rule="evenodd" fill-opacity="1" stroke="#000000" stroke-opacity="1" stroke-width="3.2"/>
<polyline clip-path="url(#clip902)" style="stroke:#ed5d92; stroke-linecap:round; stroke-linejoin:round; stroke-width:0; stroke-opacity:1; fill:none" points="1947.92,1362.09 1909.7,1362.09 1986.15,1362.09 1947.92,1362.09 "/>
<polyline clip-path="url(#clip902)" style="stroke:#ed5d92; stroke-linecap:round; stroke-linejoin:round; stroke-width:0; stroke-opacity:1; fill:none" points="2024.38,1362.09 2024.38,1362.09 1871.47,1362.09 2024.38,1362.09 "/>
<polyline clip-path="url(#clip902)" style="stroke:#ed5d92; stroke-linecap:round; stroke-linejoin:round; stroke-width:0; stroke-opacity:1; fill:none" points="2024.38,1362.09 1871.47,1362.09 2024.38,1362.09 1947.92,1362.09 "/>
<polyline clip-path="url(#clip902)" style="stroke:#ed5d92; stroke-linecap:round; stroke-linejoin:round; stroke-width:0; stroke-opacity:1; fill:none" points="1947.92,1362.09 1909.7,1362.09 1986.15,1362.09 1947.92,1362.09 "/>
<path clip-path="url(#clip902)" d="M2215.52 221.299 L2177.29 221.299 L2253.75 221.299 L2215.52 221.299 L2215.52 176.944 L2215.52 221.299  Z" fill="#c68125" fill-rule="evenodd" fill-opacity="1"/>
<polyline clip-path="url(#clip902)" style="stroke:#000000; stroke-linecap:round; stroke-linejoin:round; stroke-width:4; stroke-opacity:1; fill:none" points="2215.52,221.299 2177.29,221.299 2253.75,221.299 2215.52,221.299 2215.52,176.944 2215.52,221.299 "/>
<path clip-path="url(#clip902)" d="M2291.97 176.944 L2291.97 158.083 L2139.06 158.083 L2139.06 176.944 L2291.97 176.944 L2291.97 158.083 L2291.97 176.944  Z" fill="#c68125" fill-rule="evenodd" fill-opacity="1"/>
<polyline clip-path="url(#clip902)" style="stroke:#000000; stroke-linecap:round; stroke-linejoin:round; stroke-width:4; stroke-opacity:1; fill:none" points="2291.97,176.944 2291.97,158.083 2139.06,158.083 2139.06,176.944 2291.97,176.944 2291.97,158.083 2291.97,176.944 "/>
<path clip-path="url(#clip902)" d="M2291.97 126.32 L2139.06 126.32 L2139.06 158.083 L2291.97 158.083 L2291.97 126.32 L2215.52 126.32 L2291.97 126.32  Z" fill="#c68125" fill-rule="evenodd" fill-opacity="1"/>
<polyline clip-path="url(#clip902)" style="stroke:#000000; stroke-linecap:round; stroke-linejoin:round; stroke-width:4; stroke-opacity:1; fill:none" points="2291.97,126.32 2139.06,126.32 2139.06,158.083 2291.97,158.083 2291.97,126.32 2215.52,126.32 2291.97,126.32 "/>
<path clip-path="url(#clip902)" d="M2215.52 85.5405 L2177.29 85.5405 L2253.75 85.5405 L2215.52 85.5405 L2215.52 126.32 L2215.52 85.5405  Z" fill="#c68125" fill-rule="evenodd" fill-opacity="1"/>
<polyline clip-path="url(#clip902)" style="stroke:#000000; stroke-linecap:round; stroke-linejoin:round; stroke-width:4; stroke-opacity:1; fill:none" points="2215.52,85.5405 2177.29,85.5405 2253.75,85.5405 2215.52,85.5405 2215.52,126.32 2215.52,85.5405 "/>
<polyline clip-path="url(#clip902)" style="stroke:#c68125; stroke-linecap:round; stroke-linejoin:round; stroke-width:0; stroke-opacity:1; fill:none" points="2215.52,221.299 2177.29,221.299 2253.75,221.299 2215.52,221.299 2215.52,176.944 "/>
<polyline clip-path="url(#clip902)" style="stroke:#c68125; stroke-linecap:round; stroke-linejoin:round; stroke-width:0; stroke-opacity:1; fill:none" points="2291.97,176.944 2291.97,158.083 2139.06,158.083 2139.06,176.944 2291.97,176.944 2291.97,158.083 "/>
<polyline clip-path="url(#clip902)" style="stroke:#c68125; stroke-linecap:round; stroke-linejoin:round; stroke-width:0; stroke-opacity:1; fill:none" points="2291.97,126.32 2139.06,126.32 2139.06,158.083 2291.97,158.083 2291.97,126.32 2215.52,126.32 "/>
<polyline clip-path="url(#clip902)" style="stroke:#c68125; stroke-linecap:round; stroke-linejoin:round; stroke-width:0; stroke-opacity:1; fill:none" points="2215.52,85.5405 2177.29,85.5405 2253.75,85.5405 2215.52,85.5405 2215.52,126.32 "/>
</svg>
